G04*
G04 #@! TF.GenerationSoftware,Altium Limited,Altium Designer,23.6.0 (18)*
G04*
G04 Layer_Color=8388736*
%FSTAX25Y25*%
%MOIN*%
G70*
G04*
G04 #@! TF.SameCoordinates,9BEE5B86-6B9F-4FCF-B317-2D1E74663753*
G04*
G04*
G04 #@! TF.FilePolarity,Negative*
G04*
G01*
G75*
%ADD14C,0.16548*%
%ADD15C,0.09113*%
%ADD16C,0.09300*%
%ADD17C,0.08400*%
%ADD18C,0.06784*%
%ADD19R,0.06784X0.06784*%
%ADD20R,0.10642X0.08674*%
%ADD21C,0.12800*%
%ADD22R,0.07887X0.07887*%
%ADD23R,0.06784X0.06784*%
%ADD24C,0.05800*%
D14*
X028Y0107D02*
D03*
Y0229D02*
D03*
D15*
X01825Y0401624D02*
D03*
X02025D02*
D03*
X0262Y04025D02*
D03*
X0242D02*
D03*
X0115Y0401624D02*
D03*
X0135D02*
D03*
X00855D02*
D03*
X00655D02*
D03*
D16*
X02225Y0388D02*
D03*
Y0428D02*
D03*
X0169501D02*
D03*
Y0388D02*
D03*
X015Y0428D02*
D03*
Y0388D02*
D03*
X0103001Y0428D02*
D03*
Y0388D02*
D03*
X0331Y0401D02*
D03*
X0371D02*
D03*
X0278Y03055D02*
D03*
Y02655D02*
D03*
D17*
X03135Y0378D02*
D03*
X03085Y03855D02*
D03*
X03035Y0378D02*
D03*
X0309Y02925D02*
D03*
X0304Y03D02*
D03*
X0299Y02925D02*
D03*
X0100961Y0245193D02*
D03*
X0110961D02*
D03*
X0120961D02*
D03*
X0130961D02*
D03*
X0140961D02*
D03*
X0150961D02*
D03*
X0160961D02*
D03*
X0170961D02*
D03*
X0180961D02*
D03*
X0190961D02*
D03*
X0200961D02*
D03*
X0210961D02*
D03*
X0220961D02*
D03*
X0230961D02*
D03*
X0240961D02*
D03*
X0100961Y0342713D02*
D03*
X0110961D02*
D03*
X0120961D02*
D03*
X0130961D02*
D03*
X0140961D02*
D03*
X0150961D02*
D03*
X0160961D02*
D03*
X0170961D02*
D03*
X0180961D02*
D03*
X0190961D02*
D03*
X0200961D02*
D03*
X0210961D02*
D03*
X0220961D02*
D03*
X0230961D02*
D03*
X0240961D02*
D03*
D18*
X02415Y03635D02*
D03*
X02315D02*
D03*
X02215D02*
D03*
X02115D02*
D03*
X02015D02*
D03*
X01915D02*
D03*
X01815D02*
D03*
X01715D02*
D03*
X01615D02*
D03*
X01515D02*
D03*
X01415D02*
D03*
X01315D02*
D03*
X01215D02*
D03*
X01115D02*
D03*
X0101Y02215D02*
D03*
X0111D02*
D03*
X0121D02*
D03*
X0131D02*
D03*
X0141D02*
D03*
X0151D02*
D03*
X0161D02*
D03*
X0171D02*
D03*
X0181D02*
D03*
X0191D02*
D03*
X0201D02*
D03*
X0211D02*
D03*
X0221D02*
D03*
X0231D02*
D03*
X0076Y0111D02*
D03*
X0086D02*
D03*
X0096D02*
D03*
X01985Y01745D02*
D03*
Y01645D02*
D03*
Y01545D02*
D03*
X01505Y0111D02*
D03*
X01605D02*
D03*
X01705D02*
D03*
X02215D02*
D03*
X02315D02*
D03*
D19*
X01015Y03635D02*
D03*
X0241Y02215D02*
D03*
X0066Y0111D02*
D03*
X01405D02*
D03*
X02115D02*
D03*
D20*
X0427Y03535D02*
D03*
Y03335D02*
D03*
Y037345D02*
D03*
X04255Y0271D02*
D03*
Y0251D02*
D03*
Y029095D02*
D03*
D21*
X0388Y033D02*
D03*
X034Y0378D02*
D03*
X0398Y0354D02*
D03*
X034Y033D02*
D03*
X0388Y0378D02*
D03*
Y0248D02*
D03*
X034Y0296D02*
D03*
X0398Y0272D02*
D03*
X034Y0248D02*
D03*
X0388Y0296D02*
D03*
D22*
X03115Y0344D02*
D03*
X03015D02*
D03*
X03085Y0252D02*
D03*
X02985D02*
D03*
D23*
X01985Y01845D02*
D03*
D24*
X0081506Y03076D02*
D03*
X02574Y02433D02*
D03*
X02158Y02961D02*
D03*
X00741Y02884D02*
D03*
M02*
