G04*
G04 #@! TF.GenerationSoftware,Altium Limited,Altium Designer,23.6.0 (18)*
G04*
G04 Layer_Physical_Order=1*
G04 Layer_Color=255*
%FSTAX25Y25*%
%MOIN*%
G70*
G04*
G04 #@! TF.SameCoordinates,9BEE5B86-6B9F-4FCF-B317-2D1E74663753*
G04*
G04*
G04 #@! TF.FilePolarity,Positive*
G04*
G01*
G75*
%ADD25C,0.05906*%
%ADD26C,0.15748*%
%ADD27C,0.07500*%
%ADD28C,0.08500*%
%ADD29C,0.07600*%
%ADD30C,0.05984*%
%ADD31R,0.05984X0.05984*%
%ADD32R,0.09843X0.07874*%
%ADD33C,0.12000*%
%ADD34R,0.07087X0.07087*%
%ADD35R,0.05984X0.05984*%
%ADD36C,0.05000*%
G36*
X0432105Y0378785D02*
X0420681D01*
Y0368115D01*
X0432105D01*
Y0358835D01*
X0420681D01*
Y0348165D01*
X0432105D01*
Y0338835D01*
X0420681D01*
Y0328165D01*
X0432105D01*
Y0296666D01*
X0431819Y0296285D01*
X0431605Y0296285D01*
X0419181D01*
Y0285615D01*
X0431605D01*
X0431819Y0285615D01*
X0432105Y0285234D01*
Y0276716D01*
X0431819Y0276335D01*
X0431605Y0276335D01*
X0419181D01*
Y0265665D01*
X0431605D01*
X0431819Y0265665D01*
X0432105Y0265284D01*
Y0256716D01*
X0431819Y0256335D01*
X0431605Y0256335D01*
X0419181D01*
Y0245665D01*
X0431605D01*
X0431819Y0245665D01*
X0432105Y0245284D01*
Y0094395D01*
X0051395D01*
Y0434105D01*
X0102032D01*
X0102098Y0433605D01*
X0100821Y0433263D01*
X0099533Y0432519D01*
X0098482Y0431468D01*
X0097738Y043018D01*
X0097353Y0428744D01*
Y0427256D01*
X0097738Y042582D01*
X0098482Y0424532D01*
X0098613Y0424401D01*
Y0420943D01*
X0084303Y0406633D01*
X0083513Y0406421D01*
X0082339Y0405744D01*
X0081381Y0404785D01*
X0080703Y0403611D01*
X0080352Y0402302D01*
Y0400947D01*
X0080703Y0399638D01*
X0081381Y0398464D01*
X0082339Y0397505D01*
X0083513Y0396828D01*
X0084822Y0396477D01*
X0086178D01*
X0087487Y0396828D01*
X0088661Y0397505D01*
X0089619Y0398464D01*
X0090297Y0399638D01*
X0090509Y0400427D01*
X0106104Y0416023D01*
X0106104Y0416023D01*
X0106801Y0416931D01*
X0107239Y041799D01*
X0107389Y0419125D01*
X0107389Y0419126D01*
Y0424401D01*
X010752Y0424532D01*
X0108264Y042582D01*
X0108649Y0427256D01*
Y0428744D01*
X0108264Y043018D01*
X010752Y0431468D01*
X0106469Y0432519D01*
X0105181Y0433263D01*
X0103904Y0433605D01*
X010397Y0434105D01*
X0149031D01*
X0149097Y0433605D01*
X014782Y0433263D01*
X0146532Y0432519D01*
X0146401Y0432388D01*
X0141376D01*
X0141376Y0432388D01*
X014024Y0432238D01*
X0139182Y04318D01*
X0138273Y0431103D01*
X0138273Y0431103D01*
X0113803Y0406633D01*
X0113013Y0406421D01*
X0111839Y0405744D01*
X0110881Y0404785D01*
X0110203Y0403611D01*
X0109852Y0402302D01*
Y0400947D01*
X0110203Y0399638D01*
X0110881Y0398464D01*
X0111839Y0397505D01*
X0113013Y0396828D01*
X0114322Y0396477D01*
X0115678D01*
X0116987Y0396828D01*
X0118161Y0397505D01*
X0119119Y0398464D01*
X0119797Y0399638D01*
X0120009Y0400427D01*
X0143193Y0423612D01*
X0146401D01*
X0146532Y0423481D01*
X014782Y0422737D01*
X0149257Y0422352D01*
X0150743D01*
X015218Y0422737D01*
X0153468Y0423481D01*
X0154519Y0424532D01*
X0155263Y042582D01*
X0155648Y0427256D01*
Y0428744D01*
X0155263Y043018D01*
X0154519Y0431468D01*
X0153468Y0432519D01*
X015218Y0433263D01*
X0150903Y0433605D01*
X0150969Y0434105D01*
X0168532D01*
X0168598Y0433605D01*
X0167321Y0433263D01*
X0166033Y0432519D01*
X0164982Y0431468D01*
X0164238Y043018D01*
X0163853Y0428744D01*
Y0427256D01*
X0164238Y042582D01*
X0164982Y0424532D01*
X0166033Y0423481D01*
X0167321Y0422737D01*
X0168757Y0422352D01*
X0168943D01*
X0184309Y0406987D01*
X018405Y0406538D01*
X0183178Y0406772D01*
X0181822D01*
X0180513Y0406421D01*
X0179339Y0405744D01*
X0178381Y0404785D01*
X0177703Y0403611D01*
X0177352Y0402302D01*
Y0400947D01*
X0177703Y0399638D01*
X0178381Y0398464D01*
X0179339Y0397505D01*
X0180513Y0396828D01*
X0181822Y0396477D01*
X0183178D01*
X0184487Y0396828D01*
X0185661Y0397505D01*
X0186619Y0398464D01*
X0187297Y0399638D01*
X0187648Y0400947D01*
Y0402302D01*
X0187414Y0403174D01*
X0187862Y0403433D01*
X0192774Y0398522D01*
X0192774Y0398522D01*
X0193683Y0397824D01*
X0194741Y0397386D01*
X0195877Y0397236D01*
X0195877Y0397236D01*
X0199805D01*
X0200513Y0396828D01*
X0201822Y0396477D01*
X0203178D01*
X0204487Y0396828D01*
X0205661Y0397505D01*
X0206619Y0398464D01*
X0207297Y0399638D01*
X0207508Y0400427D01*
X0213393Y0406312D01*
X0237879D01*
X023807Y040585D01*
X0237881Y0405661D01*
X0237203Y0404487D01*
X0236852Y0403178D01*
Y0401822D01*
X0237203Y0400513D01*
X0237881Y0399339D01*
X0238839Y0398381D01*
X0240013Y0397703D01*
X0241322Y0397352D01*
X0242678D01*
X0243987Y0397703D01*
X0245161Y0398381D01*
X0246119Y0399339D01*
X0246797Y0400513D01*
X0247148Y0401822D01*
Y0403178D01*
X0246797Y0404487D01*
X0246119Y0405661D01*
X024593Y040585D01*
X0246121Y0406312D01*
X0257879D01*
X025807Y040585D01*
X0257881Y0405661D01*
X0257203Y0404487D01*
X0256852Y0403178D01*
Y0401822D01*
X0257203Y0400513D01*
X0257612Y0399805D01*
Y0326817D01*
X0205047Y0274253D01*
X0140629Y0269375D01*
X014023Y0269292D01*
X0139825Y0269238D01*
X0139671Y0269175D01*
X0139508Y0269141D01*
X0139144Y0268956D01*
X0138767Y02688D01*
X0138635Y0268699D01*
X0138486Y0268624D01*
X0138182Y0268351D01*
X0137858Y0268103D01*
X0137757Y0267971D01*
X0137633Y026786D01*
X0137409Y0267518D01*
X0137161Y0267194D01*
X0137097Y026704D01*
X0137006Y0266901D01*
X0136878Y0266513D01*
X0136722Y0266136D01*
X01367Y0265971D01*
X0136649Y0265812D01*
X0136626Y0265405D01*
X0136573Y0265D01*
Y0247988D01*
X0136242Y0247415D01*
X013568D01*
X013512Y0248384D01*
X0134152Y0249352D01*
X0132967Y0250036D01*
X0131645Y0250391D01*
X0130276D01*
X0128954Y0250036D01*
X0127769Y0249352D01*
X0126801Y0248384D01*
X0126242Y0247415D01*
X012568D01*
X012512Y0248384D01*
X0124152Y0249352D01*
X0122967Y0250036D01*
X0121645Y0250391D01*
X0120276D01*
X0118954Y0250036D01*
X0117769Y0249352D01*
X0116801Y0248384D01*
X0116117Y0247199D01*
X0116014Y0246813D01*
X0115496D01*
X0115434Y0247046D01*
X0114802Y024814D01*
X0113908Y0249034D01*
X0112813Y0249666D01*
X0111592Y0249993D01*
X0111461D01*
Y0245193D01*
Y0240393D01*
X0111592D01*
X0112813Y024072D01*
X0113908Y0241352D01*
X0114802Y0242246D01*
X0115434Y024334D01*
X0115496Y0243573D01*
X0116014D01*
X0116117Y0243187D01*
X0116573Y0242398D01*
Y023334D01*
X0116573Y0233339D01*
X0116612Y023304D01*
Y0222085D01*
X011661Y0222078D01*
Y0220922D01*
X0116612Y0220915D01*
Y01874D01*
X0116612Y01874D01*
X0116762Y0186264D01*
X01172Y0185206D01*
X0117897Y0184297D01*
X0204797Y0097397D01*
X0204797Y0097397D01*
X0205706Y00967D01*
X0206764Y0096262D01*
X02079Y0096112D01*
X02079Y0096112D01*
X0215D01*
X0215Y0096112D01*
X0216136Y0096262D01*
X0217194Y00967D01*
X0218103Y0097397D01*
X0224603Y0103897D01*
X0224603Y0103897D01*
X02253Y0104806D01*
X0225738Y0105864D01*
X0225888Y0107D01*
X0225888Y0107D01*
Y0110415D01*
X022589Y0110422D01*
Y0111578D01*
X0225591Y0112694D01*
X0225013Y0113695D01*
X0224195Y0114513D01*
X0223194Y0115091D01*
X0222078Y011539D01*
X0220922D01*
X0219806Y0115091D01*
X0218805Y0114513D01*
X0217987Y0113695D01*
X0217409Y0112694D01*
X021711Y0111578D01*
Y0110422D01*
X0217112Y0110415D01*
Y0108818D01*
X0216352Y0108057D01*
X021589Y0108248D01*
Y011539D01*
X0215888D01*
Y0119417D01*
X0215888Y0119417D01*
X0215738Y0120553D01*
X02153Y0121611D01*
X0214603Y012252D01*
X0214603Y012252D01*
X0195488Y0141635D01*
Y0150641D01*
X0195988Y0150882D01*
X0196806Y0150409D01*
X0197922Y015011D01*
X0199078D01*
X0199085Y0150112D01*
X02255D01*
X02255Y0150112D01*
X0226636Y0150262D01*
X0227694Y01507D01*
X0228603Y0151397D01*
X0234103Y0156897D01*
X0234103Y0156897D01*
X02348Y0157806D01*
X0235238Y0158864D01*
X0235388Y016D01*
Y0220915D01*
X023539Y0220922D01*
Y0222078D01*
X0235388Y0222085D01*
Y02333D01*
X0235388Y02333D01*
X0235349Y0233599D01*
Y0242398D01*
X023568Y0242971D01*
X0236242D01*
X0236802Y0242002D01*
X0237769Y0241034D01*
X0238783Y0240449D01*
X0238928Y0239887D01*
X0237897Y0238856D01*
X02372Y0237948D01*
X0236762Y0236889D01*
X0236612Y0235754D01*
X0236612Y0235753D01*
Y022589D01*
X023661D01*
Y021711D01*
X024539D01*
Y022589D01*
X0245388D01*
Y0233936D01*
X0246853Y0235401D01*
X0246853Y0235401D01*
X024755Y023631D01*
X0247988Y0237368D01*
X0248138Y0238504D01*
X0248138Y0238504D01*
Y0242404D01*
X0248138Y0242404D01*
X0247988Y0243539D01*
X024755Y0244598D01*
X0246853Y0245506D01*
X0246853Y0245506D01*
X024604Y0246319D01*
X0245804Y0247199D01*
X024512Y0248384D01*
X0244152Y0249352D01*
X0242967Y0250036D01*
X0241645Y0250391D01*
X0240276D01*
X0238954Y0250036D01*
X0237769Y0249352D01*
X0236802Y0248384D01*
X0236242Y0247415D01*
X023568D01*
X023512Y0248384D01*
X0234152Y0249352D01*
X0232967Y0250036D01*
X0231645Y0250391D01*
X0230276D01*
X0228954Y0250036D01*
X0227769Y0249352D01*
X0226801Y0248384D01*
X0226242Y0247415D01*
X022568D01*
X022512Y0248384D01*
X0224152Y0249352D01*
X0222967Y0250036D01*
X0221645Y0250391D01*
X0220276D01*
X0218954Y0250036D01*
X0217769Y0249352D01*
X0216802Y0248384D01*
X0216242Y0247415D01*
X021568D01*
X021512Y0248384D01*
X0214152Y0249352D01*
X0212967Y0250036D01*
X0211645Y0250391D01*
X0210276D01*
X0208954Y0250036D01*
X0207769Y0249352D01*
X0206802Y0248384D01*
X0206242Y0247415D01*
X020568D01*
X020512Y0248384D01*
X0204152Y0249352D01*
X0202967Y0250036D01*
X0201645Y0250391D01*
X0200276D01*
X0198954Y0250036D01*
X0197769Y0249352D01*
X0196801Y0248384D01*
X0196242Y0247415D01*
X019568D01*
X019512Y0248384D01*
X0194152Y0249352D01*
X0192967Y0250036D01*
X0191645Y0250391D01*
X0190276D01*
X0188954Y0250036D01*
X0187769Y0249352D01*
X0186801Y0248384D01*
X0186242Y0247415D01*
X018568D01*
X018512Y0248384D01*
X0184152Y0249352D01*
X0182967Y0250036D01*
X0181645Y0250391D01*
X0180276D01*
X0178954Y0250036D01*
X0177769Y0249352D01*
X0176801Y0248384D01*
X0176242Y0247415D01*
X017568D01*
X017512Y0248384D01*
X0174152Y0249352D01*
X0172967Y0250036D01*
X0171645Y0250391D01*
X0170276D01*
X0168954Y0250036D01*
X0167769Y0249352D01*
X0166801Y0248384D01*
X0166242Y0247415D01*
X016568D01*
X016512Y0248384D01*
X0164152Y0249352D01*
X0162967Y0250036D01*
X0161645Y0250391D01*
X0160276D01*
X0158954Y0250036D01*
X0157769Y0249352D01*
X0156801Y0248384D01*
X0156242Y0247415D01*
X015568D01*
X015512Y0248384D01*
X0154152Y0249352D01*
X0152967Y0250036D01*
X0151645Y0250391D01*
X0150276D01*
X0148954Y0250036D01*
X0147769Y0249352D01*
X0146801Y0248384D01*
X0146242Y0247415D01*
X014568D01*
X0145349Y0247988D01*
Y0260932D01*
X0207331Y0265625D01*
X0207731Y0265708D01*
X0208136Y0265762D01*
X020829Y0265825D01*
X0208452Y0265859D01*
X0208817Y0266044D01*
X0209194Y02662D01*
X0209326Y0266301D01*
X0209475Y0266376D01*
X0209779Y0266649D01*
X0210103Y0266897D01*
X0265103Y0321897D01*
X0265103Y0321897D01*
X0265162Y0321975D01*
X0265686Y0321836D01*
X0265726Y0321532D01*
X0254297Y0310103D01*
X02536Y0309194D01*
X0253162Y0308136D01*
X0253012Y0307D01*
X0253012Y0307D01*
Y02433D01*
X0253162Y0242164D01*
X02536Y0241106D01*
X0254297Y0240197D01*
X0255206Y02395D01*
X0256264Y0239062D01*
X02574Y0238912D01*
X0258536Y0239062D01*
X0259594Y02395D01*
X0260503Y0240197D01*
X02612Y0241106D01*
X0261638Y0242164D01*
X0261788Y02433D01*
Y0305183D01*
X0273303Y0316697D01*
X0273303Y0316697D01*
X0274Y0317606D01*
X0274438Y0318664D01*
X0274588Y03198D01*
Y0408D01*
X0274588Y0408D01*
X0274438Y0409136D01*
X0274Y0410194D01*
X0273303Y0411103D01*
X0273303Y0411103D01*
X0270603Y0413803D01*
X0269694Y04145D01*
X0268636Y0414938D01*
X02675Y0415088D01*
X02675Y0415088D01*
X0211576D01*
X0211576Y0415088D01*
X021044Y0414938D01*
X0209382Y04145D01*
X0208473Y0413803D01*
X0208473Y0413803D01*
X0201303Y0406633D01*
X0200513Y0406421D01*
X0199805Y0406012D01*
X0197694D01*
X0175149Y0428558D01*
Y0428744D01*
X0174764Y043018D01*
X017402Y0431468D01*
X0172969Y0432519D01*
X0171681Y0433263D01*
X0170404Y0433605D01*
X017047Y0434105D01*
X0221531D01*
X0221597Y0433605D01*
X022032Y0433263D01*
X0219032Y0432519D01*
X0217981Y0431468D01*
X0217237Y043018D01*
X0216852Y0428744D01*
Y0427256D01*
X0217237Y042582D01*
X0217981Y0424532D01*
X0219032Y0423481D01*
X022032Y0422737D01*
X0221757Y0422352D01*
X0223243D01*
X022468Y0422737D01*
X0225968Y0423481D01*
X0227019Y0424532D01*
X0227763Y042582D01*
X0228148Y0427256D01*
Y0428744D01*
X0227763Y043018D01*
X0227019Y0431468D01*
X0225968Y0432519D01*
X022468Y0433263D01*
X0223403Y0433605D01*
X0223469Y0434105D01*
X0432105D01*
Y0378785D01*
D02*
G37*
G36*
X0186573Y0242398D02*
Y023334D01*
X0186573Y0233339D01*
X0186612Y023304D01*
Y0222085D01*
X018661Y0222078D01*
Y0220922D01*
X0186909Y0219806D01*
X0187487Y0218805D01*
X0188305Y0217987D01*
X0189306Y0217409D01*
X0190422Y021711D01*
X0191578D01*
X0192694Y0217409D01*
X0193695Y0217987D01*
X0194513Y0218805D01*
X0195091Y0219806D01*
X019539Y0220922D01*
Y0222078D01*
X0195388Y0222085D01*
Y02333D01*
X0195388Y02333D01*
X0195349Y0233599D01*
Y0242398D01*
X019568Y0242971D01*
X0196242D01*
X0196573Y0242398D01*
Y023334D01*
X0196573Y0233339D01*
X0196612Y023304D01*
Y0222085D01*
X019661Y0222078D01*
Y0220922D01*
X0196612Y0220915D01*
Y0203D01*
X0196612Y0203D01*
X0196762Y0201864D01*
X01972Y0200806D01*
X0197897Y0199897D01*
X0201512Y0196282D01*
Y0188492D01*
X0199D01*
Y01845D01*
Y0180508D01*
X0201512D01*
Y0178359D01*
X0201012Y0178119D01*
X0200194Y0178591D01*
X0199078Y017889D01*
X0197922D01*
X0197915Y0178888D01*
X01937D01*
X01937Y0178888D01*
X0192564Y0178738D01*
X0191506Y01783D01*
X0190597Y0177603D01*
X0190597Y0177603D01*
X0187997Y0175003D01*
X01873Y0174094D01*
X0186862Y0173036D01*
X0186712Y01719D01*
X0186712Y01719D01*
Y0139817D01*
X0186712Y0139817D01*
X0186862Y0138681D01*
X01873Y0137623D01*
X0187997Y0136714D01*
X0207112Y0117599D01*
Y011539D01*
X020711D01*
Y0108149D01*
X0206648Y0107957D01*
X0125388Y0189218D01*
Y0220915D01*
X012539Y0220922D01*
Y0222078D01*
X0125388Y0222085D01*
Y02333D01*
X0125388Y02333D01*
X0125348Y0233599D01*
Y0242398D01*
X012568Y0242971D01*
X0126242D01*
X0126573Y0242398D01*
Y023334D01*
X0126573Y0233339D01*
X0126612Y023304D01*
Y0222085D01*
X012661Y0222078D01*
Y0220922D01*
X0126909Y0219806D01*
X0127487Y0218805D01*
X0128305Y0217987D01*
X0129306Y0217409D01*
X0130422Y021711D01*
X0131578D01*
X0132694Y0217409D01*
X0133695Y0217987D01*
X0134513Y0218805D01*
X0135091Y0219806D01*
X013539Y0220922D01*
Y0222078D01*
X0135388Y0222085D01*
Y02333D01*
X0135388Y02333D01*
X0135348Y0233599D01*
Y0242398D01*
X013568Y0242971D01*
X0136242D01*
X0136573Y0242398D01*
Y023334D01*
X0136573Y0233339D01*
X0136612Y023304D01*
Y0222085D01*
X013661Y0222078D01*
Y0220922D01*
X0136909Y0219806D01*
X0137487Y0218805D01*
X0138305Y0217987D01*
X0139306Y0217409D01*
X0140422Y021711D01*
X0141578D01*
X0142694Y0217409D01*
X0143695Y0217987D01*
X0144513Y0218805D01*
X0145091Y0219806D01*
X014539Y0220922D01*
Y0222078D01*
X0145388Y0222085D01*
Y02333D01*
X0145388Y02333D01*
X0145349Y0233599D01*
Y0242398D01*
X014568Y0242971D01*
X0146242D01*
X0146573Y0242398D01*
Y023334D01*
X0146573Y0233339D01*
X0146612Y023304D01*
Y0222085D01*
X014661Y0222078D01*
Y0220922D01*
X0146909Y0219806D01*
X0147487Y0218805D01*
X0148305Y0217987D01*
X0149306Y0217409D01*
X0150422Y021711D01*
X0151578D01*
X0152694Y0217409D01*
X0153695Y0217987D01*
X0154513Y0218805D01*
X0155091Y0219806D01*
X015539Y0220922D01*
Y0222078D01*
X0155388Y0222085D01*
Y02333D01*
X0155388Y02333D01*
X0155349Y0233599D01*
Y0242398D01*
X015568Y0242971D01*
X0156242D01*
X0156573Y0242398D01*
Y023334D01*
X0156573Y0233339D01*
X0156612Y023304D01*
Y0222085D01*
X015661Y0222078D01*
Y0220922D01*
X0156909Y0219806D01*
X0157487Y0218805D01*
X0158305Y0217987D01*
X0159306Y0217409D01*
X0160422Y021711D01*
X0161578D01*
X0162694Y0217409D01*
X0163695Y0217987D01*
X0164513Y0218805D01*
X0165091Y0219806D01*
X016539Y0220922D01*
Y0222078D01*
X0165388Y0222085D01*
Y02333D01*
X0165388Y02333D01*
X0165348Y0233599D01*
Y0242398D01*
X016568Y0242971D01*
X0166242D01*
X0166573Y0242398D01*
Y023334D01*
X0166573Y0233339D01*
X0166612Y023304D01*
Y0222085D01*
X016661Y0222078D01*
Y0220922D01*
X0166909Y0219806D01*
X0167487Y0218805D01*
X0168305Y0217987D01*
X0169306Y0217409D01*
X0170422Y021711D01*
X0171578D01*
X0172694Y0217409D01*
X0173695Y0217987D01*
X0174513Y0218805D01*
X0175091Y0219806D01*
X017539Y0220922D01*
Y0222078D01*
X0175388Y0222085D01*
Y02333D01*
X0175388Y02333D01*
X0175348Y0233599D01*
Y0242398D01*
X017568Y0242971D01*
X0176242D01*
X0176573Y0242398D01*
Y023334D01*
X0176573Y0233339D01*
X0176612Y023304D01*
Y0222085D01*
X017661Y0222078D01*
Y0220922D01*
X0176909Y0219806D01*
X0177487Y0218805D01*
X0178305Y0217987D01*
X0179306Y0217409D01*
X0180422Y021711D01*
X0181578D01*
X0182694Y0217409D01*
X0183695Y0217987D01*
X0184513Y0218805D01*
X0185091Y0219806D01*
X018539Y0220922D01*
Y0222078D01*
X0185388Y0222085D01*
Y02333D01*
X0185388Y02333D01*
X0185348Y0233599D01*
Y0242398D01*
X018568Y0242971D01*
X0186242D01*
X0186573Y0242398D01*
D02*
G37*
%LPC*%
G36*
X0331744Y0406648D02*
X0330257D01*
X032882Y0406263D01*
X0327532Y0405519D01*
X0327401Y0405388D01*
X0324D01*
X0324Y0405388D01*
X0322864Y0405238D01*
X0321806Y04048D01*
X0320897Y0404103D01*
X0320897Y0404103D01*
X0307374Y0390579D01*
X0306494Y0390343D01*
X0305309Y0389659D01*
X0304341Y0388691D01*
X0303657Y0387506D01*
X0303302Y0386184D01*
Y0384816D01*
X0303602Y0383698D01*
X0303302Y0383198D01*
X0302816D01*
X0301494Y0382843D01*
X0300309Y0382159D01*
X0299341Y0381191D01*
X0298657Y0380006D01*
X0298421Y0379126D01*
X0296997Y0377703D01*
X02963Y0376794D01*
X0295862Y0375736D01*
X0295712Y03746D01*
X0295862Y0373464D01*
X02963Y0372406D01*
X0296997Y0371497D01*
X0297112Y0371382D01*
Y0348941D01*
X0296559D01*
Y0339059D01*
X0306059D01*
X0306441Y0339059D01*
X0306941Y0339059D01*
X0316441D01*
Y0348941D01*
X0306941D01*
X0306559Y0348941D01*
X0306241D01*
X0305888Y0349294D01*
Y03732D01*
X0305888Y03732D01*
X0305866Y0373364D01*
X0306691Y0373841D01*
X0307659Y0374809D01*
X0308343Y0375994D01*
X0308447Y037638D01*
X0308965D01*
X0309027Y0376147D01*
X0309659Y0375053D01*
X0310553Y0374159D01*
X0311647Y0373527D01*
X0312868Y03732D01*
X0313D01*
Y0378D01*
X03135D01*
Y03785D01*
X03183D01*
Y0378632D01*
X0317973Y0379853D01*
X0317341Y0380947D01*
X0316447Y0381841D01*
X0315353Y0382473D01*
X0314132Y03828D01*
X0313443D01*
X0313193Y0383233D01*
X0313343Y0383494D01*
X0313579Y0384374D01*
X0325817Y0396612D01*
X0327401D01*
X0327532Y0396481D01*
X032882Y0395737D01*
X0330257Y0395352D01*
X0331744D01*
X033318Y0395737D01*
X0334468Y0396481D01*
X0335519Y0397532D01*
X0336263Y039882D01*
X0336648Y0400256D01*
Y0401744D01*
X0336263Y040318D01*
X0335519Y0404468D01*
X0334468Y0405519D01*
X033318Y0406263D01*
X0331744Y0406648D01*
D02*
G37*
G36*
X0066178Y0406772D02*
X0064822D01*
X0063513Y0406421D01*
X0062339Y0405744D01*
X0061381Y0404785D01*
X0060703Y0403611D01*
X0060352Y0402302D01*
Y0400947D01*
X0060703Y0399638D01*
X0061381Y0398464D01*
X0062339Y0397505D01*
X0063513Y0396828D01*
X0064822Y0396477D01*
X0066178D01*
X0067487Y0396828D01*
X0068661Y0397505D01*
X0069619Y0398464D01*
X0070297Y0399638D01*
X0070648Y0400947D01*
Y0402302D01*
X0070297Y0403611D01*
X0069619Y0404785D01*
X0068661Y0405744D01*
X0067487Y0406421D01*
X0066178Y0406772D01*
D02*
G37*
G36*
X0371743Y0406648D02*
X0370256D01*
X036882Y0406263D01*
X0367532Y0405519D01*
X0366481Y0404468D01*
X0365737Y040318D01*
X0365352Y0401744D01*
Y0400256D01*
X0365737Y039882D01*
X0366481Y0397532D01*
X0367532Y0396481D01*
X036882Y0395737D01*
X0370256Y0395352D01*
X0371743D01*
X037318Y0395737D01*
X0374468Y0396481D01*
X0375519Y0397532D01*
X0376263Y039882D01*
X0376648Y0400256D01*
Y0401744D01*
X0376263Y040318D01*
X0375519Y0404468D01*
X0374468Y0405519D01*
X037318Y0406263D01*
X0371743Y0406648D01*
D02*
G37*
G36*
X0223191Y039325D02*
X0223D01*
Y03885D01*
X022775D01*
Y0388691D01*
X0227392Y0390026D01*
X0226701Y0391224D01*
X0225724Y0392201D01*
X0224526Y0392892D01*
X0223191Y039325D01*
D02*
G37*
G36*
X0170192D02*
X0170001D01*
Y03885D01*
X0174751D01*
Y0388691D01*
X0174393Y0390026D01*
X0173702Y0391224D01*
X0172725Y0392201D01*
X0171527Y0392892D01*
X0170192Y039325D01*
D02*
G37*
G36*
X0150691D02*
X01505D01*
Y03885D01*
X015525D01*
Y0388691D01*
X0154892Y0390026D01*
X0154201Y0391224D01*
X0153224Y0392201D01*
X0152026Y0392892D01*
X0150691Y039325D01*
D02*
G37*
G36*
X0103692D02*
X0103501D01*
Y03885D01*
X0108251D01*
Y0388691D01*
X0107893Y0390026D01*
X0107202Y0391224D01*
X0106225Y0392201D01*
X0105027Y0392892D01*
X0103692Y039325D01*
D02*
G37*
G36*
X0222D02*
X0221809D01*
X0220474Y0392892D01*
X0219276Y0392201D01*
X0218299Y0391224D01*
X0217608Y0390026D01*
X021725Y0388691D01*
Y03885D01*
X0222D01*
Y039325D01*
D02*
G37*
G36*
X0169001D02*
X016881D01*
X0167475Y0392892D01*
X0166277Y0392201D01*
X01653Y0391224D01*
X0164609Y0390026D01*
X0164251Y0388691D01*
Y03885D01*
X0169001D01*
Y039325D01*
D02*
G37*
G36*
X01495D02*
X0149309D01*
X0147974Y0392892D01*
X0146776Y0392201D01*
X0145799Y0391224D01*
X0145108Y0390026D01*
X014475Y0388691D01*
Y03885D01*
X01495D01*
Y039325D01*
D02*
G37*
G36*
X0102501D02*
X010231D01*
X0100975Y0392892D01*
X0099777Y0392201D01*
X00988Y0391224D01*
X0098109Y0390026D01*
X0097751Y0388691D01*
Y03885D01*
X0102501D01*
Y039325D01*
D02*
G37*
G36*
X022775Y03875D02*
X0223D01*
Y038275D01*
X0223191D01*
X0224526Y0383108D01*
X0225724Y0383799D01*
X0226701Y0384776D01*
X0227392Y0385974D01*
X022775Y0387309D01*
Y03875D01*
D02*
G37*
G36*
X0222D02*
X021725D01*
Y0387309D01*
X0217608Y0385974D01*
X0218299Y0384776D01*
X0219276Y0383799D01*
X0220474Y0383108D01*
X0221809Y038275D01*
X0222D01*
Y03875D01*
D02*
G37*
G36*
X0174751D02*
X0170001D01*
Y038275D01*
X0170192D01*
X0171527Y0383108D01*
X0172725Y0383799D01*
X0173702Y0384776D01*
X0174393Y0385974D01*
X0174751Y0387309D01*
Y03875D01*
D02*
G37*
G36*
X0169001D02*
X0164251D01*
Y0387309D01*
X0164609Y0385974D01*
X01653Y0384776D01*
X0166277Y0383799D01*
X0167475Y0383108D01*
X016881Y038275D01*
X0169001D01*
Y03875D01*
D02*
G37*
G36*
X015525D02*
X01505D01*
Y038275D01*
X0150691D01*
X0152026Y0383108D01*
X0153224Y0383799D01*
X0154201Y0384776D01*
X0154892Y0385974D01*
X015525Y0387309D01*
Y03875D01*
D02*
G37*
G36*
X01495D02*
X014475D01*
Y0387309D01*
X0145108Y0385974D01*
X0145799Y0384776D01*
X0146776Y0383799D01*
X0147974Y0383108D01*
X0149309Y038275D01*
X01495D01*
Y03875D01*
D02*
G37*
G36*
X0108251D02*
X0103501D01*
Y038275D01*
X0103692D01*
X0105027Y0383108D01*
X0106225Y0383799D01*
X0107202Y0384776D01*
X0107893Y0385974D01*
X0108251Y0387309D01*
Y03875D01*
D02*
G37*
G36*
X0102501D02*
X0097751D01*
Y0387309D01*
X0098109Y0385974D01*
X00988Y0384776D01*
X0099777Y0383799D01*
X0100975Y0383108D01*
X010231Y038275D01*
X0102501D01*
Y03875D01*
D02*
G37*
G36*
X03183Y03775D02*
X0314D01*
Y03732D01*
X0314132D01*
X0315353Y0373527D01*
X0316447Y0374159D01*
X0317341Y0375053D01*
X0317973Y0376147D01*
X03183Y0377368D01*
Y03775D01*
D02*
G37*
G36*
X0388729Y0385398D02*
X0387271D01*
X0385842Y0385113D01*
X0384496Y0384556D01*
X0383284Y0383746D01*
X0382254Y0382716D01*
X0381444Y0381504D01*
X0380887Y0380158D01*
X0380602Y0378729D01*
Y0377271D01*
X0380887Y0375842D01*
X0381444Y0374496D01*
X0382254Y0373284D01*
X0383284Y0372254D01*
X0384496Y0371444D01*
X0385842Y0370887D01*
X0387271Y0370602D01*
X0388729D01*
X0390158Y0370887D01*
X0391504Y0371444D01*
X0392716Y0372254D01*
X0393746Y0373284D01*
X0394556Y0374496D01*
X0395113Y0375842D01*
X0395398Y0377271D01*
Y0378729D01*
X0395113Y0380158D01*
X0394556Y0381504D01*
X0393746Y0382716D01*
X0392716Y0383746D01*
X0391504Y0384556D01*
X0390158Y0385113D01*
X0388729Y0385398D01*
D02*
G37*
G36*
X0340729D02*
X0339271D01*
X0337842Y0385113D01*
X0336496Y0384556D01*
X0335284Y0383746D01*
X0334254Y0382716D01*
X0333444Y0381504D01*
X0332887Y0380158D01*
X0332602Y0378729D01*
Y0377271D01*
X0332887Y0375842D01*
X0333444Y0374496D01*
X0334254Y0373284D01*
X0335284Y0372254D01*
X0336496Y0371444D01*
X0337842Y0370887D01*
X0339271Y0370602D01*
X0340729D01*
X0342158Y0370887D01*
X0343504Y0371444D01*
X0344716Y0372254D01*
X0345746Y0373284D01*
X0346556Y0374496D01*
X0347113Y0375842D01*
X0347398Y0377271D01*
Y0378729D01*
X0347113Y0380158D01*
X0346556Y0381504D01*
X0345746Y0382716D01*
X0344716Y0383746D01*
X0343504Y0384556D01*
X0342158Y0385113D01*
X0340729Y0385398D01*
D02*
G37*
G36*
X0398729Y0361398D02*
X0397271D01*
X0395842Y0361113D01*
X0394496Y0360556D01*
X0393284Y0359746D01*
X0392254Y0358716D01*
X0391444Y0357504D01*
X0390887Y0356158D01*
X0390602Y0354729D01*
Y0353271D01*
X0390887Y0351842D01*
X0391444Y0350496D01*
X0392254Y0349284D01*
X0393284Y0348254D01*
X0394496Y0347444D01*
X0395842Y0346887D01*
X0397271Y0346602D01*
X0398729D01*
X0400158Y0346887D01*
X0401504Y0347444D01*
X0402716Y0348254D01*
X0403746Y0349284D01*
X0404556Y0350496D01*
X0405113Y0351842D01*
X0405398Y0353271D01*
Y0354729D01*
X0405113Y0356158D01*
X0404556Y0357504D01*
X0403746Y0358716D01*
X0402716Y0359746D01*
X0401504Y0360556D01*
X0400158Y0361113D01*
X0398729Y0361398D01*
D02*
G37*
G36*
X0135678Y0406772D02*
X0134322D01*
X0133013Y0406421D01*
X0131839Y0405744D01*
X0130881Y0404785D01*
X0130203Y0403611D01*
X0129991Y0402821D01*
X0098397Y0371227D01*
X00977Y0370318D01*
X0097262Y036926D01*
X0097146Y0368384D01*
X0097145Y0368375D01*
X0097145Y0368375D01*
X0097112Y0368124D01*
X009711Y036789D01*
X009711D01*
Y035911D01*
X0097112D01*
Y0354877D01*
X0096722Y0353936D01*
X0096573Y03528D01*
X0096573Y03528D01*
Y0345508D01*
X0096117Y0344719D01*
X0095763Y0343397D01*
Y0342028D01*
X0096117Y0340706D01*
X0096801Y0339521D01*
X0097769Y0338554D01*
X0098954Y0337869D01*
X0100276Y0337515D01*
X0101645D01*
X0102967Y0337869D01*
X0104152Y0338554D01*
X010512Y0339521D01*
X010568Y0340491D01*
X0106242D01*
X0106801Y0339521D01*
X0107769Y0338554D01*
X0108954Y0337869D01*
X0110276Y0337515D01*
X0111645D01*
X0112967Y0337869D01*
X0114152Y0338554D01*
X011512Y0339521D01*
X011568Y0340491D01*
X0116242D01*
X0116801Y0339521D01*
X0117769Y0338554D01*
X0118954Y0337869D01*
X0120276Y0337515D01*
X0121645D01*
X0122967Y0337869D01*
X0124152Y0338554D01*
X012512Y0339521D01*
X012568Y0340491D01*
X0126242D01*
X0126801Y0339521D01*
X0127769Y0338554D01*
X0128954Y0337869D01*
X0130276Y0337515D01*
X0131645D01*
X0132967Y0337869D01*
X0134152Y0338554D01*
X013512Y0339521D01*
X013568Y0340491D01*
X0136242D01*
X0136801Y0339521D01*
X0137769Y0338554D01*
X0138954Y0337869D01*
X0140276Y0337515D01*
X0141645D01*
X0142967Y0337869D01*
X0144152Y0338554D01*
X014512Y0339521D01*
X014568Y0340491D01*
X0146242D01*
X0146801Y0339521D01*
X0147769Y0338554D01*
X0148954Y0337869D01*
X0150276Y0337515D01*
X0151645D01*
X0152967Y0337869D01*
X0154152Y0338554D01*
X015512Y0339521D01*
X015568Y0340491D01*
X0156242D01*
X0156801Y0339521D01*
X0157769Y0338554D01*
X0158954Y0337869D01*
X0160276Y0337515D01*
X0161645D01*
X0162967Y0337869D01*
X0164152Y0338554D01*
X016512Y0339521D01*
X016568Y0340491D01*
X0166242D01*
X0166801Y0339521D01*
X0167769Y0338554D01*
X0168954Y0337869D01*
X0170276Y0337515D01*
X0171645D01*
X0172967Y0337869D01*
X0174152Y0338554D01*
X017512Y0339521D01*
X017568Y0340491D01*
X0176242D01*
X0176801Y0339521D01*
X0177769Y0338554D01*
X0178954Y0337869D01*
X0180276Y0337515D01*
X0181645D01*
X0182967Y0337869D01*
X0184152Y0338554D01*
X018512Y0339521D01*
X018568Y0340491D01*
X0186242D01*
X0186573Y0339917D01*
Y0320939D01*
X0186573Y0320939D01*
X0186722Y0319804D01*
X0187161Y0318745D01*
X0187858Y0317837D01*
X0212697Y0292997D01*
X0213606Y02923D01*
X0214664Y0291862D01*
X02158Y0291712D01*
X0216936Y0291862D01*
X0217994Y02923D01*
X0218903Y0292997D01*
X02196Y0293906D01*
X0220038Y0294964D01*
X0220188Y02961D01*
X0220038Y0297236D01*
X02196Y0298294D01*
X0218903Y0299203D01*
X0195349Y0322757D01*
Y0339917D01*
X019568Y0340491D01*
X0196242D01*
X0196801Y0339521D01*
X0197769Y0338554D01*
X0198954Y0337869D01*
X0200276Y0337515D01*
X0201645D01*
X0202967Y0337869D01*
X0204152Y0338554D01*
X020512Y0339521D01*
X020568Y0340491D01*
X0206242D01*
X0206802Y0339521D01*
X0207769Y0338554D01*
X0208954Y0337869D01*
X0210276Y0337515D01*
X0211645D01*
X0212967Y0337869D01*
X0214152Y0338554D01*
X021512Y0339521D01*
X021568Y0340491D01*
X0216242D01*
X0216802Y0339521D01*
X0217769Y0338554D01*
X0218954Y0337869D01*
X0220276Y0337515D01*
X0221645D01*
X0222967Y0337869D01*
X0224152Y0338554D01*
X022512Y0339521D01*
X022568Y0340491D01*
X0226242D01*
X0226801Y0339521D01*
X0227769Y0338554D01*
X0228954Y0337869D01*
X0230276Y0337515D01*
X0231645D01*
X0232967Y0337869D01*
X0234152Y0338554D01*
X023512Y0339521D01*
X023568Y0340491D01*
X0236242D01*
X0236802Y0339521D01*
X0237769Y0338554D01*
X0238954Y0337869D01*
X0240276Y0337515D01*
X0241645D01*
X0242967Y0337869D01*
X0244152Y0338554D01*
X024512Y0339521D01*
X0245804Y0340706D01*
X0246158Y0342028D01*
Y0343397D01*
X0245804Y0344719D01*
X0245349Y0345508D01*
Y0351262D01*
X0245738Y0352204D01*
X0245888Y0353339D01*
X0245888Y035334D01*
Y0362915D01*
X024589Y0362922D01*
Y0364078D01*
X0245591Y0365194D01*
X0245013Y0366195D01*
X0244195Y0367013D01*
X0243194Y0367591D01*
X0242078Y036789D01*
X0240922D01*
X0239806Y0367591D01*
X0238805Y0367013D01*
X0237987Y0366195D01*
X0237409Y0365194D01*
X023711Y0364078D01*
Y0362922D01*
X0237112Y0362915D01*
Y0354877D01*
X0236722Y0353936D01*
X0236573Y03528D01*
X0236573Y03528D01*
Y0345508D01*
X0236242Y0344934D01*
X023568D01*
X0235349Y0345508D01*
Y0351262D01*
X0235738Y0352204D01*
X0235888Y0353339D01*
X0235888Y035334D01*
Y0362915D01*
X023589Y0362922D01*
Y0364078D01*
X0235591Y0365194D01*
X0235013Y0366195D01*
X0234195Y0367013D01*
X0233194Y0367591D01*
X0232078Y036789D01*
X0230922D01*
X0229806Y0367591D01*
X0228805Y0367013D01*
X0227987Y0366195D01*
X0227409Y0365194D01*
X022711Y0364078D01*
Y0362922D01*
X0227112Y0362915D01*
Y0354877D01*
X0226722Y0353936D01*
X0226573Y03528D01*
X0226573Y03528D01*
Y0345508D01*
X0226242Y0344934D01*
X022568D01*
X0225348Y0345508D01*
Y0351262D01*
X0225738Y0352204D01*
X0225888Y0353339D01*
X0225888Y035334D01*
Y0362915D01*
X022589Y0362922D01*
Y0364078D01*
X0225591Y0365194D01*
X0225013Y0366195D01*
X0224195Y0367013D01*
X0223194Y0367591D01*
X0222078Y036789D01*
X0220922D01*
X0219806Y0367591D01*
X0218805Y0367013D01*
X0217987Y0366195D01*
X0217409Y0365194D01*
X021711Y0364078D01*
Y0362922D01*
X0217112Y0362915D01*
Y0354877D01*
X0216722Y0353936D01*
X0216573Y03528D01*
X0216573Y03528D01*
Y0345508D01*
X0216242Y0344934D01*
X021568D01*
X0215349Y0345508D01*
Y0351262D01*
X0215738Y0352204D01*
X0215888Y0353339D01*
X0215888Y035334D01*
Y0362915D01*
X021589Y0362922D01*
Y0364078D01*
X0215591Y0365194D01*
X0215013Y0366195D01*
X0214195Y0367013D01*
X0213194Y0367591D01*
X0212078Y036789D01*
X0210922D01*
X0209806Y0367591D01*
X0208805Y0367013D01*
X0207987Y0366195D01*
X0207409Y0365194D01*
X020711Y0364078D01*
Y0362922D01*
X0207112Y0362915D01*
Y0354877D01*
X0206722Y0353936D01*
X0206573Y03528D01*
X0206573Y03528D01*
Y0345508D01*
X0206242Y0344934D01*
X020568D01*
X0205348Y0345508D01*
Y0351262D01*
X0205738Y0352204D01*
X0205888Y0353339D01*
X0205888Y035334D01*
Y0362915D01*
X020589Y0362922D01*
Y0364078D01*
X0205591Y0365194D01*
X0205013Y0366195D01*
X0204195Y0367013D01*
X0203194Y0367591D01*
X0202078Y036789D01*
X0200922D01*
X0199806Y0367591D01*
X0198805Y0367013D01*
X0197987Y0366195D01*
X0197409Y0365194D01*
X019711Y0364078D01*
Y0362922D01*
X0197112Y0362915D01*
Y0354877D01*
X0196722Y0353936D01*
X0196573Y03528D01*
X0196573Y03528D01*
Y0345508D01*
X0196242Y0344934D01*
X019568D01*
X0195349Y0345508D01*
Y0351262D01*
X0195738Y0352204D01*
X0195888Y0353339D01*
X0195888Y035334D01*
Y0362915D01*
X019589Y0362922D01*
Y0364078D01*
X0195591Y0365194D01*
X0195013Y0366195D01*
X0194195Y0367013D01*
X0193194Y0367591D01*
X0192078Y036789D01*
X0190922D01*
X0189806Y0367591D01*
X0188805Y0367013D01*
X0187987Y0366195D01*
X0187409Y0365194D01*
X018711Y0364078D01*
Y0362922D01*
X0187112Y0362915D01*
Y0354877D01*
X0186722Y0353936D01*
X0186573Y03528D01*
X0186573Y03528D01*
Y0345508D01*
X0186242Y0344934D01*
X018568D01*
X0185348Y0345508D01*
Y0351262D01*
X0185738Y0352204D01*
X0185888Y0353339D01*
X0185888Y035334D01*
Y0362915D01*
X018589Y0362922D01*
Y0364078D01*
X0185591Y0365194D01*
X0185013Y0366195D01*
X0184195Y0367013D01*
X0183194Y0367591D01*
X0182078Y036789D01*
X0180922D01*
X0179806Y0367591D01*
X0178805Y0367013D01*
X0177987Y0366195D01*
X0177409Y0365194D01*
X017711Y0364078D01*
Y0362922D01*
X0177112Y0362915D01*
Y0354877D01*
X0176722Y0353936D01*
X0176573Y03528D01*
X0176573Y03528D01*
Y0345508D01*
X0176242Y0344934D01*
X017568D01*
X0175348Y0345508D01*
Y0351262D01*
X0175738Y0352204D01*
X0175888Y0353339D01*
X0175888Y035334D01*
Y0362915D01*
X017589Y0362922D01*
Y0364078D01*
X0175591Y0365194D01*
X0175013Y0366195D01*
X0174195Y0367013D01*
X0173194Y0367591D01*
X0172078Y036789D01*
X0170922D01*
X0169806Y0367591D01*
X0168805Y0367013D01*
X0167987Y0366195D01*
X0167409Y0365194D01*
X016711Y0364078D01*
Y0362922D01*
X0167112Y0362915D01*
Y0354877D01*
X0166722Y0353936D01*
X0166573Y03528D01*
X0166573Y03528D01*
Y0345508D01*
X0166242Y0344934D01*
X016568D01*
X0165348Y0345508D01*
Y0351262D01*
X0165738Y0352204D01*
X0165888Y0353339D01*
X0165888Y035334D01*
Y0362915D01*
X016589Y0362922D01*
Y0364078D01*
X0165591Y0365194D01*
X0165013Y0366195D01*
X0164195Y0367013D01*
X0163194Y0367591D01*
X0162078Y036789D01*
X0160922D01*
X0159806Y0367591D01*
X0158805Y0367013D01*
X0157987Y0366195D01*
X0157409Y0365194D01*
X015711Y0364078D01*
Y0362922D01*
X0157112Y0362915D01*
Y0354877D01*
X0156722Y0353936D01*
X0156573Y03528D01*
X0156573Y03528D01*
Y0345508D01*
X0156242Y0344934D01*
X015568D01*
X0155349Y0345508D01*
Y0351262D01*
X0155738Y0352204D01*
X0155888Y0353339D01*
X0155888Y035334D01*
Y0362915D01*
X015589Y0362922D01*
Y0364078D01*
X0155591Y0365194D01*
X0155013Y0366195D01*
X0154195Y0367013D01*
X0153194Y0367591D01*
X0152078Y036789D01*
X0150922D01*
X0149806Y0367591D01*
X0148805Y0367013D01*
X0147987Y0366195D01*
X0147409Y0365194D01*
X014711Y0364078D01*
Y0362922D01*
X0147112Y0362915D01*
Y0354877D01*
X0146722Y0353936D01*
X0146573Y03528D01*
X0146573Y03528D01*
Y0345508D01*
X0146242Y0344934D01*
X014568D01*
X0145349Y0345508D01*
Y0351262D01*
X0145738Y0352204D01*
X0145888Y0353339D01*
X0145888Y035334D01*
Y0362915D01*
X014589Y0362922D01*
Y0364078D01*
X0145591Y0365194D01*
X0145013Y0366195D01*
X0144195Y0367013D01*
X0143194Y0367591D01*
X0142078Y036789D01*
X0140922D01*
X0139806Y0367591D01*
X0138805Y0367013D01*
X0137987Y0366195D01*
X0137409Y0365194D01*
X013711Y0364078D01*
Y0362922D01*
X0137112Y0362915D01*
Y0354877D01*
X0136722Y0353936D01*
X0136573Y03528D01*
X0136573Y03528D01*
Y0345508D01*
X0136242Y0344934D01*
X013568D01*
X0135348Y0345508D01*
Y0351262D01*
X0135738Y0352204D01*
X0135888Y0353339D01*
X0135888Y035334D01*
Y0362915D01*
X013589Y0362922D01*
Y0364078D01*
X0135591Y0365194D01*
X0135013Y0366195D01*
X0134195Y0367013D01*
X0133194Y0367591D01*
X0132078Y036789D01*
X0130922D01*
X0129806Y0367591D01*
X0128805Y0367013D01*
X0127987Y0366195D01*
X0127409Y0365194D01*
X012711Y0364078D01*
Y0362922D01*
X0127112Y0362915D01*
Y0354877D01*
X0126722Y0353936D01*
X0126573Y03528D01*
X0126573Y03528D01*
Y0345508D01*
X0126242Y0344934D01*
X012568D01*
X0125348Y0345508D01*
Y0351262D01*
X0125738Y0352204D01*
X0125888Y0353339D01*
X0125888Y035334D01*
Y0362915D01*
X012589Y0362922D01*
Y0364078D01*
X0125591Y0365194D01*
X0125013Y0366195D01*
X0124195Y0367013D01*
X0123194Y0367591D01*
X0122078Y036789D01*
X0120922D01*
X0119806Y0367591D01*
X0118805Y0367013D01*
X0117987Y0366195D01*
X0117409Y0365194D01*
X011711Y0364078D01*
Y0362922D01*
X0117112Y0362915D01*
Y0354877D01*
X0116722Y0353936D01*
X0116573Y03528D01*
X0116573Y03528D01*
Y0345508D01*
X0116242Y0344934D01*
X011568D01*
X0115348Y0345508D01*
Y0351262D01*
X0115738Y0352204D01*
X0115888Y0353339D01*
X0115888Y035334D01*
Y0362915D01*
X011589Y0362922D01*
Y0364078D01*
X0115591Y0365194D01*
X0115013Y0366195D01*
X0114195Y0367013D01*
X0113194Y0367591D01*
X0112078Y036789D01*
X0110922D01*
X0109806Y0367591D01*
X0108805Y0367013D01*
X0107987Y0366195D01*
X0107409Y0365194D01*
X010711Y0364078D01*
Y0362922D01*
X0107112Y0362915D01*
Y0354877D01*
X0106722Y0353936D01*
X0106573Y03528D01*
X0106573Y03528D01*
Y0345508D01*
X0106242Y0344934D01*
X010568D01*
X0105349Y0345508D01*
Y0351262D01*
X0105738Y0352204D01*
X0105888Y0353339D01*
X0105888Y035334D01*
Y035911D01*
X010589D01*
Y0366309D01*
X0136197Y0396616D01*
X0136987Y0396828D01*
X0138161Y0397505D01*
X0139119Y0398464D01*
X0139797Y0399638D01*
X0140148Y0400947D01*
Y0402302D01*
X0139797Y0403611D01*
X0139119Y0404785D01*
X0138161Y0405744D01*
X0136987Y0406421D01*
X0135678Y0406772D01*
D02*
G37*
G36*
X0388729Y0337398D02*
X0387271D01*
X0385842Y0337113D01*
X0384496Y0336556D01*
X0383284Y0335746D01*
X0382254Y0334716D01*
X0381444Y0333504D01*
X0380887Y0332158D01*
X0380602Y0330729D01*
Y0329271D01*
X0380679Y0328885D01*
X0374097Y0322303D01*
X03734Y0321394D01*
X0372962Y0320336D01*
X0372812Y03192D01*
X0372812Y03192D01*
Y02588D01*
X0372812Y02588D01*
X0372962Y0257664D01*
X03734Y0256606D01*
X0374097Y0255697D01*
X0380679Y0249115D01*
X0380602Y0248729D01*
Y0247271D01*
X0380887Y0245842D01*
X0381444Y0244496D01*
X0382254Y0243284D01*
X0383284Y0242254D01*
X0384496Y0241444D01*
X0385842Y0240887D01*
X0387271Y0240602D01*
X0388729D01*
X0390158Y0240887D01*
X0391504Y0241444D01*
X0392716Y0242254D01*
X0393746Y0243284D01*
X0394556Y0244496D01*
X0395113Y0245842D01*
X0395398Y0247271D01*
Y0248729D01*
X0395113Y0250158D01*
X0394556Y0251504D01*
X0393746Y0252716D01*
X0392716Y0253746D01*
X0391504Y0254556D01*
X0390158Y0255113D01*
X0388729Y0255398D01*
X0387271D01*
X0386885Y0255321D01*
X0381588Y0260617D01*
Y029142D01*
X0382066Y0291565D01*
X0382254Y0291284D01*
X0383284Y0290254D01*
X0384496Y0289444D01*
X0385842Y0288887D01*
X0387271Y0288602D01*
X0388729D01*
X0390158Y0288887D01*
X0391504Y0289444D01*
X0392716Y0290254D01*
X0393746Y0291284D01*
X0394556Y0292496D01*
X0395113Y0293842D01*
X0395398Y0295271D01*
Y0296729D01*
X0395113Y0298158D01*
X0394556Y0299504D01*
X0393746Y0300716D01*
X0392716Y0301746D01*
X0391504Y0302556D01*
X0390158Y0303113D01*
X0388729Y0303398D01*
X0387271D01*
X0385842Y0303113D01*
X0384496Y0302556D01*
X0383284Y0301746D01*
X0382254Y0300716D01*
X0382066Y0300435D01*
X0381588Y030058D01*
Y0317383D01*
X0386885Y0322679D01*
X0387271Y0322602D01*
X0388729D01*
X0390158Y0322887D01*
X0391504Y0323444D01*
X0392716Y0324254D01*
X0393746Y0325284D01*
X0394556Y0326496D01*
X0395113Y0327842D01*
X0395398Y0329271D01*
Y0330729D01*
X0395113Y0332158D01*
X0394556Y0333504D01*
X0393746Y0334716D01*
X0392716Y0335746D01*
X0391504Y0336556D01*
X0390158Y0337113D01*
X0388729Y0337398D01*
D02*
G37*
G36*
X0340729D02*
X0339271D01*
X0337842Y0337113D01*
X0336496Y0336556D01*
X0335284Y0335746D01*
X0334254Y0334716D01*
X0333444Y0333504D01*
X0332887Y0332158D01*
X0332602Y0330729D01*
Y0329271D01*
X0332887Y0327842D01*
X0333444Y0326496D01*
X0334254Y0325284D01*
X0335284Y0324254D01*
X0336496Y0323444D01*
X0337842Y0322887D01*
X0339271Y0322602D01*
X0340729D01*
X0342158Y0322887D01*
X0343504Y0323444D01*
X0344716Y0324254D01*
X0345746Y0325284D01*
X0346556Y0326496D01*
X0347113Y0327842D01*
X0347398Y0329271D01*
Y0330729D01*
X0347113Y0332158D01*
X0346556Y0333504D01*
X0345746Y0334716D01*
X0344716Y0335746D01*
X0343504Y0336556D01*
X0342158Y0337113D01*
X0340729Y0337398D01*
D02*
G37*
G36*
X0081506Y0311988D02*
X0080371Y0311838D01*
X0079312Y03114D01*
X0078404Y0310703D01*
X0077706Y0309794D01*
X0077268Y0308736D01*
X0077118Y03076D01*
Y0292133D01*
X007667Y0291912D01*
X0076294Y02922D01*
X0075236Y0292638D01*
X00741Y0292788D01*
X0072964Y0292638D01*
X0071906Y02922D01*
X0070997Y0291503D01*
X00703Y0290594D01*
X0069862Y0289536D01*
X0069712Y02884D01*
Y01972D01*
X0069712Y01972D01*
X0069862Y0196064D01*
X00703Y0195006D01*
X0070997Y0194097D01*
X0091612Y0173483D01*
Y0111585D01*
X009161Y0111578D01*
Y0110422D01*
X0091909Y0109306D01*
X0092487Y0108305D01*
X0093305Y0107487D01*
X0094306Y0106909D01*
X0095422Y010661D01*
X0096578D01*
X0097694Y0106909D01*
X0098695Y0107487D01*
X0099513Y0108305D01*
X0100091Y0109306D01*
X010039Y0110422D01*
Y0111578D01*
X0100388Y0111585D01*
Y0174453D01*
X010085Y0174645D01*
X0156112Y0119383D01*
Y0111585D01*
X015611Y0111578D01*
Y0110422D01*
X0156409Y0109306D01*
X0156987Y0108305D01*
X0157805Y0107487D01*
X0158806Y0106909D01*
X0159922Y010661D01*
X0161078D01*
X0162194Y0106909D01*
X0163195Y0107487D01*
X0164013Y0108305D01*
X0164591Y0109306D01*
X016489Y0110422D01*
Y0111578D01*
X0164888Y0111585D01*
Y01212D01*
X0164888Y01212D01*
X0164738Y0122336D01*
X01643Y0123394D01*
X0163603Y0124303D01*
X0163603Y0124303D01*
X0085894Y0202011D01*
Y03076D01*
X0085745Y0308736D01*
X0085307Y0309794D01*
X0084609Y0310703D01*
X00837Y03114D01*
X0082642Y0311838D01*
X0081506Y0311988D01*
D02*
G37*
G36*
X0340729Y0303398D02*
X0339271D01*
X0337842Y0303113D01*
X0336496Y0302556D01*
X0335284Y0301746D01*
X0334254Y0300716D01*
X0333444Y0299504D01*
X0332887Y0298158D01*
X0332602Y0296729D01*
Y0295271D01*
X0332887Y0293842D01*
X0333444Y0292496D01*
X0334254Y0291284D01*
X0335284Y0290254D01*
X0336496Y0289444D01*
X0337842Y0288887D01*
X0339271Y0288602D01*
X0340729D01*
X0342158Y0288887D01*
X0343504Y0289444D01*
X0344716Y0290254D01*
X0345746Y0291284D01*
X0346556Y0292496D01*
X0347113Y0293842D01*
X0347398Y0295271D01*
Y0296729D01*
X0347113Y0298158D01*
X0346556Y0299504D01*
X0345746Y0300716D01*
X0344716Y0301746D01*
X0343504Y0302556D01*
X0342158Y0303113D01*
X0340729Y0303398D01*
D02*
G37*
G36*
X03138Y0292D02*
X03095D01*
Y02877D01*
X0309632D01*
X0310853Y0288027D01*
X0311947Y0288659D01*
X0312841Y0289553D01*
X0313473Y0290647D01*
X03138Y0291868D01*
Y0292D01*
D02*
G37*
G36*
X0278744Y0311148D02*
X0277256D01*
X027582Y0310763D01*
X0274532Y0310019D01*
X0273481Y0308968D01*
X0272737Y030768D01*
X0272352Y0306243D01*
Y0304756D01*
X0272737Y030332D01*
X0273481Y0302032D01*
X0274532Y0300981D01*
X027582Y0300237D01*
X0277256Y0299852D01*
X0278744D01*
X028018Y0300237D01*
X0281468Y0300981D01*
X0281599Y0301112D01*
X0296683D01*
X0298921Y0298874D01*
X0299102Y0298198D01*
X0298801Y0297698D01*
X0298316D01*
X0296994Y0297343D01*
X0295809Y0296659D01*
X0294841Y0295691D01*
X0294157Y0294506D01*
X0293802Y0293184D01*
Y0291816D01*
X0294157Y0290494D01*
X0294612Y0289705D01*
Y0274282D01*
X0294262Y0273436D01*
X0294112Y02723D01*
X0294112Y02723D01*
Y0256941D01*
X0293559D01*
Y0247059D01*
X0303059D01*
X0303441Y0247059D01*
X0303941Y0247059D01*
X0313441D01*
Y0256941D01*
X0303941D01*
X0303559Y0256941D01*
X0303241D01*
X0302888Y0257295D01*
Y0270818D01*
X0303238Y0271664D01*
X0303388Y02728D01*
X0303388Y02728D01*
Y0289705D01*
X0303843Y0290494D01*
X0303947Y029088D01*
X0304465D01*
X0304527Y0290647D01*
X0305159Y0289553D01*
X0306053Y0288659D01*
X0307147Y0288027D01*
X0308368Y02877D01*
X03085D01*
Y02925D01*
X0309D01*
Y0293D01*
X03138D01*
Y0293132D01*
X0313473Y0294353D01*
X0312841Y0295447D01*
X0311947Y0296341D01*
X0310853Y0296973D01*
X0309632Y02973D01*
X0308943D01*
X0308693Y0297733D01*
X0308843Y0297994D01*
X0309198Y0299316D01*
Y0300684D01*
X0308843Y0302006D01*
X0308159Y0303191D01*
X0307191Y0304159D01*
X0306006Y0304843D01*
X0305126Y0305079D01*
X0301603Y0308603D01*
X0300694Y03093D01*
X0299636Y0309738D01*
X02985Y0309888D01*
X02985Y0309888D01*
X0281599D01*
X0281468Y0310019D01*
X028018Y0310763D01*
X0278744Y0311148D01*
D02*
G37*
G36*
X0398729Y0279398D02*
X0397271D01*
X0395842Y0279113D01*
X0394496Y0278556D01*
X0393284Y0277746D01*
X0392254Y0276716D01*
X0391444Y0275504D01*
X0390887Y0274158D01*
X0390602Y0272729D01*
Y0271271D01*
X0390887Y0269842D01*
X0391444Y0268496D01*
X0392254Y0267284D01*
X0393284Y0266254D01*
X0394496Y0265444D01*
X0395842Y0264887D01*
X0397271Y0264602D01*
X0398729D01*
X0400158Y0264887D01*
X0401504Y0265444D01*
X0402716Y0266254D01*
X0403746Y0267284D01*
X0404556Y0268496D01*
X0405113Y0269842D01*
X0405398Y0271271D01*
Y0272729D01*
X0405113Y0274158D01*
X0404556Y0275504D01*
X0403746Y0276716D01*
X0402716Y0277746D01*
X0401504Y0278556D01*
X0400158Y0279113D01*
X0398729Y0279398D01*
D02*
G37*
G36*
X0278744Y0271148D02*
X0277256D01*
X027582Y0270763D01*
X0274532Y0270019D01*
X0273481Y0268968D01*
X0272737Y026768D01*
X0272352Y0266244D01*
Y0264756D01*
X0272737Y026332D01*
X0273481Y0262032D01*
X0274532Y0260981D01*
X027582Y0260237D01*
X0277256Y0259852D01*
X0278744D01*
X028018Y0260237D01*
X0281468Y0260981D01*
X0282519Y0262032D01*
X0283263Y026332D01*
X0283648Y0264756D01*
Y0266244D01*
X0283263Y026768D01*
X0282519Y0268968D01*
X0281468Y0270019D01*
X028018Y0270763D01*
X0278744Y0271148D01*
D02*
G37*
G36*
X0340729Y0255398D02*
X0339271D01*
X0337842Y0255113D01*
X0336496Y0254556D01*
X0335284Y0253746D01*
X0334254Y0252716D01*
X0333444Y0251504D01*
X0332887Y0250158D01*
X0332602Y0248729D01*
Y0247271D01*
X0332887Y0245842D01*
X0333444Y0244496D01*
X0334254Y0243284D01*
X0335284Y0242254D01*
X0336496Y0241444D01*
X0337842Y0240887D01*
X0339271Y0240602D01*
X0340729D01*
X0342158Y0240887D01*
X0343504Y0241444D01*
X0344716Y0242254D01*
X0345746Y0243284D01*
X0346556Y0244496D01*
X0347113Y0245842D01*
X0347398Y0247271D01*
Y0248729D01*
X0347113Y0250158D01*
X0346556Y0251504D01*
X0345746Y0252716D01*
X0344716Y0253746D01*
X0343504Y0254556D01*
X0342158Y0255113D01*
X0340729Y0255398D01*
D02*
G37*
G36*
X0101645Y0250391D02*
X0100276D01*
X0098954Y0250036D01*
X0097769Y0249352D01*
X0096801Y0248384D01*
X0096117Y0247199D01*
X0095763Y0245877D01*
Y0244509D01*
X0096117Y0243187D01*
X0096573Y0242398D01*
Y023334D01*
X0096573Y0233339D01*
X0096612Y023304D01*
Y0222085D01*
X009661Y0222078D01*
Y0220922D01*
X0096909Y0219806D01*
X0097487Y0218805D01*
X0098305Y0217987D01*
X0099306Y0217409D01*
X0100422Y021711D01*
X0101578D01*
X0102694Y0217409D01*
X0103695Y0217987D01*
X0104513Y0218805D01*
X0105091Y0219806D01*
X010539Y0220922D01*
Y0222078D01*
X0105388Y0222085D01*
Y02333D01*
X0105388Y02333D01*
X0105349Y0233599D01*
Y0242398D01*
X0105804Y0243187D01*
X0105908Y0243573D01*
X0106425D01*
X0106488Y024334D01*
X010712Y0242246D01*
X0108013Y0241352D01*
X0109108Y024072D01*
X0110329Y0240393D01*
X0110461D01*
Y0245193D01*
Y0249993D01*
X0110329D01*
X0109108Y0249666D01*
X0108013Y0249034D01*
X010712Y024814D01*
X0106488Y0247046D01*
X0106425Y0246813D01*
X0105908D01*
X0105804Y0247199D01*
X010512Y0248384D01*
X0104152Y0249352D01*
X0102967Y0250036D01*
X0101645Y0250391D01*
D02*
G37*
G36*
X0111526Y0225492D02*
X01115D01*
Y0222D01*
X0114992D01*
Y0222026D01*
X011472Y0223041D01*
X0114195Y0223951D01*
X0113451Y0224694D01*
X0112541Y022522D01*
X0111526Y0225492D01*
D02*
G37*
G36*
X01105D02*
X0110474D01*
X0109459Y022522D01*
X0108549Y0224694D01*
X0107806Y0223951D01*
X010728Y0223041D01*
X0107008Y0222026D01*
Y0222D01*
X01105D01*
Y0225492D01*
D02*
G37*
G36*
X0280913Y0238272D02*
X0279087D01*
X0277296Y0237915D01*
X0275608Y0237216D01*
X027409Y0236202D01*
X0272798Y023491D01*
X0271784Y0233392D01*
X0271085Y0231704D01*
X0270728Y0229913D01*
Y0228087D01*
X0271085Y0226296D01*
X0271784Y0224608D01*
X0272798Y022309D01*
X027409Y0221798D01*
X0275608Y0220784D01*
X0277296Y0220085D01*
X0279087Y0219728D01*
X0280913D01*
X0282704Y0220085D01*
X0284392Y0220784D01*
X028591Y0221798D01*
X0287202Y022309D01*
X0288216Y0224608D01*
X0288915Y0226296D01*
X0289272Y0228087D01*
Y0229913D01*
X0288915Y0231704D01*
X0288216Y0233392D01*
X0287202Y023491D01*
X028591Y0236202D01*
X0284392Y0237216D01*
X0282704Y0237915D01*
X0280913Y0238272D01*
D02*
G37*
G36*
X0114992Y0221D02*
X01115D01*
Y0217508D01*
X0111526D01*
X0112541Y021778D01*
X0113451Y0218305D01*
X0114195Y0219049D01*
X011472Y0219959D01*
X0114992Y0220974D01*
Y0221D01*
D02*
G37*
G36*
X01105D02*
X0107008D01*
Y0220974D01*
X010728Y0219959D01*
X0107806Y0219049D01*
X0108549Y0218305D01*
X0109459Y021778D01*
X0110474Y0217508D01*
X01105D01*
Y0221D01*
D02*
G37*
G36*
X0232026Y0114992D02*
X0232D01*
Y01115D01*
X0235492D01*
Y0111526D01*
X023522Y0112541D01*
X0234695Y0113451D01*
X0233951Y0114195D01*
X0233041Y011472D01*
X0232026Y0114992D01*
D02*
G37*
G36*
X0231D02*
X0230974D01*
X0229959Y011472D01*
X0229049Y0114195D01*
X0228306Y0113451D01*
X022778Y0112541D01*
X0227508Y0111526D01*
Y01115D01*
X0231D01*
Y0114992D01*
D02*
G37*
G36*
X0151026D02*
X0151D01*
Y01115D01*
X0154492D01*
Y0111526D01*
X015422Y0112541D01*
X0153694Y0113451D01*
X0152951Y0114195D01*
X0152041Y011472D01*
X0151026Y0114992D01*
D02*
G37*
G36*
X015D02*
X0149974D01*
X0148959Y011472D01*
X0148049Y0114195D01*
X0147306Y0113451D01*
X014678Y0112541D01*
X0146508Y0111526D01*
Y01115D01*
X015D01*
Y0114992D01*
D02*
G37*
G36*
X0076526D02*
X00765D01*
Y01115D01*
X0079992D01*
Y0111526D01*
X007972Y0112541D01*
X0079194Y0113451D01*
X0078451Y0114195D01*
X0077541Y011472D01*
X0076526Y0114992D01*
D02*
G37*
G36*
X00755D02*
X0075474D01*
X0074459Y011472D01*
X0073549Y0114195D01*
X0072806Y0113451D01*
X007228Y0112541D01*
X0072008Y0111526D01*
Y01115D01*
X00755D01*
Y0114992D01*
D02*
G37*
G36*
X0235492Y01105D02*
X0232D01*
Y0107008D01*
X0232026D01*
X0233041Y010728D01*
X0233951Y0107806D01*
X0234695Y0108549D01*
X023522Y0109459D01*
X0235492Y0110474D01*
Y01105D01*
D02*
G37*
G36*
X0231D02*
X0227508D01*
Y0110474D01*
X022778Y0109459D01*
X0228306Y0108549D01*
X0229049Y0107806D01*
X0229959Y010728D01*
X0230974Y0107008D01*
X0231D01*
Y01105D01*
D02*
G37*
G36*
X0154492D02*
X0151D01*
Y0107008D01*
X0151026D01*
X0152041Y010728D01*
X0152951Y0107806D01*
X0153694Y0108549D01*
X015422Y0109459D01*
X0154492Y0110474D01*
Y01105D01*
D02*
G37*
G36*
X015D02*
X0146508D01*
Y0110474D01*
X014678Y0109459D01*
X0147306Y0108549D01*
X0148049Y0107806D01*
X0148959Y010728D01*
X0149974Y0107008D01*
X015D01*
Y01105D01*
D02*
G37*
G36*
X0079992D02*
X00765D01*
Y0107008D01*
X0076526D01*
X0077541Y010728D01*
X0078451Y0107806D01*
X0079194Y0108549D01*
X007972Y0109459D01*
X0079992Y0110474D01*
Y01105D01*
D02*
G37*
G36*
X00755D02*
X0072008D01*
Y0110474D01*
X007228Y0109459D01*
X0072806Y0108549D01*
X0073549Y0107806D01*
X0074459Y010728D01*
X0075474Y0107008D01*
X00755D01*
Y01105D01*
D02*
G37*
G36*
X0171078Y011539D02*
X0169922D01*
X0168806Y0115091D01*
X0167805Y0114513D01*
X0166987Y0113695D01*
X0166409Y0112694D01*
X016611Y0111578D01*
Y0110422D01*
X0166409Y0109306D01*
X0166987Y0108305D01*
X0167805Y0107487D01*
X0168806Y0106909D01*
X0169922Y010661D01*
X0171078D01*
X0172194Y0106909D01*
X0173195Y0107487D01*
X0174013Y0108305D01*
X0174591Y0109306D01*
X017489Y0110422D01*
Y0111578D01*
X0174591Y0112694D01*
X0174013Y0113695D01*
X0173195Y0114513D01*
X0172194Y0115091D01*
X0171078Y011539D01*
D02*
G37*
G36*
X014489D02*
X013611D01*
Y010661D01*
X014489D01*
Y011539D01*
D02*
G37*
G36*
X0086578D02*
X0085422D01*
X0084306Y0115091D01*
X0083305Y0114513D01*
X0082487Y0113695D01*
X0081909Y0112694D01*
X008161Y0111578D01*
Y0110422D01*
X0081909Y0109306D01*
X0082487Y0108305D01*
X0083305Y0107487D01*
X0084306Y0106909D01*
X0085422Y010661D01*
X0086578D01*
X0087694Y0106909D01*
X0088695Y0107487D01*
X0089513Y0108305D01*
X0090091Y0109306D01*
X009039Y0110422D01*
Y0111578D01*
X0090091Y0112694D01*
X0089513Y0113695D01*
X0088695Y0114513D01*
X0087694Y0115091D01*
X0086578Y011539D01*
D02*
G37*
G36*
X007039D02*
X006161D01*
Y010661D01*
X007039D01*
Y011539D01*
D02*
G37*
G36*
X0280913Y0116272D02*
X0279087D01*
X0277296Y0115915D01*
X0275608Y0115216D01*
X027409Y0114202D01*
X0272798Y011291D01*
X0271784Y0111392D01*
X0271085Y0109704D01*
X0270728Y0107913D01*
Y0106087D01*
X0271085Y0104296D01*
X0271784Y0102608D01*
X0272798Y010109D01*
X027409Y0099798D01*
X0275608Y0098784D01*
X0277296Y0098085D01*
X0279087Y0097728D01*
X0280913D01*
X0282704Y0098085D01*
X0284392Y0098784D01*
X028591Y0099798D01*
X0287202Y010109D01*
X0288216Y0102608D01*
X0288915Y0104296D01*
X0289272Y0106087D01*
Y0107913D01*
X0288915Y0109704D01*
X0288216Y0111392D01*
X0287202Y011291D01*
X028591Y0114202D01*
X0284392Y0115216D01*
X0282704Y0115915D01*
X0280913Y0116272D01*
D02*
G37*
G36*
X0198Y0188492D02*
X0194508D01*
Y0185D01*
X0198D01*
Y0188492D01*
D02*
G37*
G36*
Y0184D02*
X0194508D01*
Y0180508D01*
X0198D01*
Y0184D01*
D02*
G37*
%LPD*%
D25*
X03001Y03746D02*
X03015Y03732D01*
X01937Y01745D02*
X01985D01*
X01911Y01719D02*
X01937Y01745D01*
X01911Y0139817D02*
Y01719D01*
Y0139817D02*
X02115Y0119417D01*
Y0111D02*
Y0119417D01*
X03772Y03192D02*
X0388Y033D01*
X03772Y02588D02*
Y03192D01*
Y02588D02*
X0388Y0248D01*
X01605Y0111D02*
Y01212D01*
X0081506Y0200194D02*
X01605Y01212D01*
X0081506Y0200194D02*
Y03076D01*
X0309Y02925D02*
X03194Y03029D01*
Y03721D01*
X03135Y0378D02*
X03194Y03721D01*
X0309Y02925D02*
X03164Y02851D01*
Y01959D02*
Y02851D01*
X02315Y0111D02*
X03164Y01959D01*
X03001Y03746D02*
X03035Y0378D01*
X03015Y0344D02*
Y03732D01*
X0299Y02728D02*
Y02925D01*
X02985Y02723D02*
X0299Y02728D01*
X02985Y0252D02*
Y02723D01*
X0103001Y0419125D02*
Y0428D01*
X00855Y0401624D02*
X0103001Y0419125D01*
X0115Y0401624D02*
X0141376Y0428D01*
X015D01*
X0140961Y0245193D02*
Y0265D01*
X0207Y027D01*
X0262Y0325D01*
Y04025D01*
X0169501Y0428D02*
X0195877Y0401624D01*
X02025D01*
X02574Y02433D02*
Y0307D01*
X02702Y03198D01*
Y0408D01*
X02675Y04107D02*
X02702Y0408D01*
X0211576Y04107D02*
X02675D01*
X02025Y0401624D02*
X0211576Y04107D01*
X0241Y02215D02*
Y0235754D01*
X024375Y0238504D01*
Y0242404D01*
X0240961Y0245193D02*
X024375Y0242404D01*
X0190961Y0320939D02*
Y0342713D01*
Y0320939D02*
X02158Y02961D01*
X00741Y01972D02*
Y02884D01*
Y01972D02*
X0096Y01753D01*
Y0111D02*
Y01753D01*
X00928Y0377799D02*
X0103001Y0388D01*
X00928Y02913D02*
Y0377799D01*
Y02913D02*
X0110961Y0273139D01*
Y0245193D02*
Y0273139D01*
X02215Y0107D02*
Y0111D01*
X0215Y01005D02*
X02215Y0107D01*
X02079Y01005D02*
X0215D01*
X0121Y01874D02*
X02079Y01005D01*
X0121Y01874D02*
Y02215D01*
X02985Y03055D02*
X0304Y03D01*
X0278Y03055D02*
X02985D01*
X01985Y01545D02*
X02255D01*
X0231Y016D01*
Y02215D01*
X0324Y0401D02*
X0331D01*
X03085Y03855D02*
X0324Y0401D01*
X01015Y0368124D02*
X0135Y0401624D01*
X01015Y03635D02*
Y0368124D01*
X01985Y01645D02*
X02021Y01681D01*
X02025D01*
X02059Y01715D01*
Y01981D01*
X0201Y0203D02*
X02059Y01981D01*
X0201Y0203D02*
Y02215D01*
X01015Y0353339D02*
Y03635D01*
X0100961Y03528D02*
X01015Y0353339D01*
X0100961Y0342713D02*
Y03528D01*
X0120961Y0233339D02*
Y0245193D01*
Y0233339D02*
X0121Y02333D01*
Y02215D02*
Y02333D01*
X02015Y0353339D02*
Y03635D01*
X0200961Y03528D02*
X02015Y0353339D01*
X0200961Y0342713D02*
Y03528D01*
X0110961Y0233339D02*
Y0245193D01*
Y0233339D02*
X0111Y02333D01*
Y02215D02*
Y02333D01*
X02115Y0353339D02*
Y03635D01*
X0210961Y03528D02*
X02115Y0353339D01*
X0210961Y0342713D02*
Y03528D01*
X0150961Y0233339D02*
Y0245193D01*
Y0233339D02*
X0151Y02333D01*
Y02215D02*
Y02333D01*
X0160961Y0233339D02*
Y0245193D01*
Y0233339D02*
X0161Y02333D01*
Y02215D02*
Y02333D01*
X0140961Y0233339D02*
Y0245193D01*
Y0233339D02*
X0141Y02333D01*
Y02215D02*
Y02333D01*
X01815Y0353339D02*
Y03635D01*
X0180961Y03528D02*
X01815Y0353339D01*
X0180961Y0342713D02*
Y03528D01*
X01915Y0353339D02*
Y03635D01*
X0190961Y03528D02*
X01915Y0353339D01*
X0190961Y0342713D02*
Y03528D01*
X0230961Y0233339D02*
Y0245193D01*
Y0233339D02*
X0231Y02333D01*
Y02215D02*
Y02333D01*
X0200961Y0233339D02*
Y0245193D01*
Y0233339D02*
X0201Y02333D01*
Y02215D02*
Y02333D01*
X0130961Y0233339D02*
Y0245193D01*
Y0233339D02*
X0131Y02333D01*
Y02215D02*
Y02333D01*
X0220961Y0233339D02*
Y0245193D01*
Y0233339D02*
X0221Y02333D01*
Y02215D02*
Y02333D01*
X0210961Y0233339D02*
Y0245193D01*
Y0233339D02*
X0211Y02333D01*
Y02215D02*
Y02333D01*
X0190961Y0233339D02*
Y0245193D01*
Y0233339D02*
X0191Y02333D01*
Y02215D02*
Y02333D01*
X0180961Y0233339D02*
Y0245193D01*
Y0233339D02*
X0181Y02333D01*
Y02215D02*
Y02333D01*
X0170961Y0233339D02*
Y0245193D01*
Y0233339D02*
X0171Y02333D01*
Y02215D02*
Y02333D01*
X0100961Y0233339D02*
Y0245193D01*
Y0233339D02*
X0101Y02333D01*
Y02215D02*
Y02333D01*
X01115Y0353339D02*
Y03635D01*
X0110961Y03528D02*
X01115Y0353339D01*
X0110961Y0342713D02*
Y03528D01*
X01215Y0353339D02*
Y03635D01*
X0120961Y03528D02*
X01215Y0353339D01*
X0120961Y0342713D02*
Y03528D01*
X01315Y0353339D02*
Y03635D01*
X0130961Y03528D02*
X01315Y0353339D01*
X0130961Y0342713D02*
Y03528D01*
X01415Y0353339D02*
Y03635D01*
X0140961Y03528D02*
X01415Y0353339D01*
X0140961Y0342713D02*
Y03528D01*
X01515Y0353339D02*
Y03635D01*
X0150961Y03528D02*
X01515Y0353339D01*
X0150961Y0342713D02*
Y03528D01*
X01615Y0353339D02*
Y03635D01*
X0160961Y03528D02*
X01615Y0353339D01*
X0160961Y0342713D02*
Y03528D01*
X01715Y0353339D02*
Y03635D01*
X0170961Y03528D02*
X01715Y0353339D01*
X0170961Y0342713D02*
Y03528D01*
X02215Y0353339D02*
Y03635D01*
X0220961Y03528D02*
X02215Y0353339D01*
X0220961Y0342713D02*
Y03528D01*
X02315Y0353339D02*
Y03635D01*
X0230961Y03528D02*
X02315Y0353339D01*
X0230961Y0342713D02*
Y03528D01*
X02415Y0353339D02*
Y03635D01*
X0240961Y03528D02*
X02415Y0353339D01*
X0240961Y0342713D02*
Y03528D01*
D26*
X028Y0107D02*
D03*
Y0229D02*
D03*
D27*
X01825Y0401624D02*
D03*
X02025D02*
D03*
X0262Y04025D02*
D03*
X0242D02*
D03*
X0115Y0401624D02*
D03*
X0135D02*
D03*
X00855D02*
D03*
X00655D02*
D03*
D28*
X02225Y0388D02*
D03*
Y0428D02*
D03*
X0169501D02*
D03*
Y0388D02*
D03*
X015Y0428D02*
D03*
Y0388D02*
D03*
X0103001Y0428D02*
D03*
Y0388D02*
D03*
X0331Y0401D02*
D03*
X0371D02*
D03*
X0278Y03055D02*
D03*
Y02655D02*
D03*
D29*
X03135Y0378D02*
D03*
X03085Y03855D02*
D03*
X03035Y0378D02*
D03*
X0309Y02925D02*
D03*
X0304Y03D02*
D03*
X0299Y02925D02*
D03*
X0100961Y0245193D02*
D03*
X0110961D02*
D03*
X0120961D02*
D03*
X0130961D02*
D03*
X0140961D02*
D03*
X0150961D02*
D03*
X0160961D02*
D03*
X0170961D02*
D03*
X0180961D02*
D03*
X0190961D02*
D03*
X0200961D02*
D03*
X0210961D02*
D03*
X0220961D02*
D03*
X0230961D02*
D03*
X0240961D02*
D03*
X0100961Y0342713D02*
D03*
X0110961D02*
D03*
X0120961D02*
D03*
X0130961D02*
D03*
X0140961D02*
D03*
X0150961D02*
D03*
X0160961D02*
D03*
X0170961D02*
D03*
X0180961D02*
D03*
X0190961D02*
D03*
X0200961D02*
D03*
X0210961D02*
D03*
X0220961D02*
D03*
X0230961D02*
D03*
X0240961D02*
D03*
D30*
X02415Y03635D02*
D03*
X02315D02*
D03*
X02215D02*
D03*
X02115D02*
D03*
X02015D02*
D03*
X01915D02*
D03*
X01815D02*
D03*
X01715D02*
D03*
X01615D02*
D03*
X01515D02*
D03*
X01415D02*
D03*
X01315D02*
D03*
X01215D02*
D03*
X01115D02*
D03*
X0101Y02215D02*
D03*
X0111D02*
D03*
X0121D02*
D03*
X0131D02*
D03*
X0141D02*
D03*
X0151D02*
D03*
X0161D02*
D03*
X0171D02*
D03*
X0181D02*
D03*
X0191D02*
D03*
X0201D02*
D03*
X0211D02*
D03*
X0221D02*
D03*
X0231D02*
D03*
X0076Y0111D02*
D03*
X0086D02*
D03*
X0096D02*
D03*
X01985Y01745D02*
D03*
Y01645D02*
D03*
Y01545D02*
D03*
X01505Y0111D02*
D03*
X01605D02*
D03*
X01705D02*
D03*
X02215D02*
D03*
X02315D02*
D03*
D31*
X01015Y03635D02*
D03*
X0241Y02215D02*
D03*
X0066Y0111D02*
D03*
X01405D02*
D03*
X02115D02*
D03*
D32*
X0427Y03535D02*
D03*
Y03335D02*
D03*
Y037345D02*
D03*
X04255Y0271D02*
D03*
Y0251D02*
D03*
Y029095D02*
D03*
D33*
X0388Y033D02*
D03*
X034Y0378D02*
D03*
X0398Y0354D02*
D03*
X034Y033D02*
D03*
X0388Y0378D02*
D03*
Y0248D02*
D03*
X034Y0296D02*
D03*
X0398Y0272D02*
D03*
X034Y0248D02*
D03*
X0388Y0296D02*
D03*
D34*
X03115Y0344D02*
D03*
X03015D02*
D03*
X03085Y0252D02*
D03*
X02985D02*
D03*
D35*
X01985Y01845D02*
D03*
D36*
X0081506Y03076D02*
D03*
X02574Y02433D02*
D03*
X02158Y02961D02*
D03*
X00741Y02884D02*
D03*
M02*
