G04*
G04 #@! TF.GenerationSoftware,Altium Limited,Altium Designer,23.6.0 (18)*
G04*
G04 Layer_Physical_Order=2*
G04 Layer_Color=16711680*
%FSTAX25Y25*%
%MOIN*%
G70*
G04*
G04 #@! TF.SameCoordinates,9BEE5B86-6B9F-4FCF-B317-2D1E74663753*
G04*
G04*
G04 #@! TF.FilePolarity,Positive*
G04*
G01*
G75*
%ADD25C,0.05906*%
%ADD26C,0.15748*%
%ADD27C,0.07500*%
%ADD28C,0.08500*%
%ADD29C,0.07600*%
%ADD30C,0.05984*%
%ADD31R,0.05984X0.05984*%
%ADD32R,0.09843X0.07874*%
%ADD33C,0.12000*%
%ADD34R,0.07087X0.07087*%
%ADD35R,0.05984X0.05984*%
%ADD36C,0.05000*%
G36*
X0432105Y0378785D02*
X0420681D01*
Y0377838D01*
X041055D01*
X0409414Y0377688D01*
X0408356Y037725D01*
X0407447Y0376553D01*
X0407447Y0376553D01*
X0402483Y0371588D01*
X039258D01*
X0392435Y0372066D01*
X0392716Y0372254D01*
X0393746Y0373284D01*
X0394556Y0374496D01*
X0395113Y0375842D01*
X0395398Y0377271D01*
Y0378729D01*
X0395113Y0380158D01*
X0394556Y0381504D01*
X0393746Y0382716D01*
X0392716Y0383746D01*
X0391504Y0384556D01*
X0390158Y0385113D01*
X0388729Y0385398D01*
X0387271D01*
X0386885Y0385321D01*
X0378803Y0393403D01*
X0377894Y03941D01*
X0376836Y0394538D01*
X03757Y0394688D01*
X03757Y0394688D01*
X0324817D01*
X0322703Y0396803D01*
X0321794Y03975D01*
X0320736Y0397938D01*
X03196Y0398088D01*
X03196Y0398088D01*
X0304D01*
X0304Y0398088D01*
X0302864Y0397938D01*
X0301806Y03975D01*
X0300897Y0396803D01*
X0300897Y0396803D01*
X0297197Y0393103D01*
X02965Y0392194D01*
X0296062Y0391136D01*
X0295912Y039D01*
X0295912Y039D01*
Y03812D01*
X0295912Y03812D01*
X0296062Y0380064D01*
X02965Y0379006D01*
X0297197Y0378097D01*
X0298421Y0376874D01*
X0298657Y0375994D01*
X0299341Y0374809D01*
X0300309Y0373841D01*
X0301494Y0373157D01*
X0302816Y0372802D01*
X0304184D01*
X0305506Y0373157D01*
X0306691Y0373841D01*
X0307659Y0374809D01*
X0308343Y0375994D01*
X0308447Y037638D01*
X0308965D01*
X0309027Y0376147D01*
X0309659Y0375053D01*
X0310553Y0374159D01*
X0311647Y0373527D01*
X0312868Y03732D01*
X0313D01*
Y0378D01*
X03135D01*
Y03785D01*
X03183D01*
Y0378632D01*
X0317973Y0379853D01*
X0317341Y0380947D01*
X0316447Y0381841D01*
X0315353Y0382473D01*
X0314132Y03828D01*
X0313443D01*
X0313193Y0383233D01*
X0313343Y0383494D01*
X0313698Y0384816D01*
Y0386184D01*
X0313343Y0387506D01*
X0312659Y0388691D01*
X0312501Y038885D01*
X0312692Y0389312D01*
X0317782D01*
X0319897Y0387197D01*
X0319897Y0387197D01*
X0320806Y03865D01*
X0321864Y0386062D01*
X0323Y0385912D01*
X0323Y0385912D01*
X0373883D01*
X0380679Y0379115D01*
X0380602Y0378729D01*
Y0377271D01*
X0380887Y0375842D01*
X0381444Y0374496D01*
X0382254Y0373284D01*
X0383284Y0372254D01*
X0383565Y0372066D01*
X038342Y0371588D01*
X0352618D01*
X0347321Y0376885D01*
X0347398Y0377271D01*
Y0378729D01*
X0347113Y0380158D01*
X0346556Y0381504D01*
X0345746Y0382716D01*
X0344716Y0383746D01*
X0343504Y0384556D01*
X0342158Y0385113D01*
X0340729Y0385398D01*
X0339271D01*
X0337842Y0385113D01*
X0336496Y0384556D01*
X0335284Y0383746D01*
X0334254Y0382716D01*
X0333444Y0381504D01*
X0332887Y0380158D01*
X0332602Y0378729D01*
Y0377271D01*
X0332887Y0375842D01*
X0333444Y0374496D01*
X0334254Y0373284D01*
X0335284Y0372254D01*
X0336496Y0371444D01*
X0337842Y0370887D01*
X0339271Y0370602D01*
X0340729D01*
X0341115Y0370679D01*
X0347697Y0364097D01*
X0347697Y0364097D01*
X0348606Y03634D01*
X0349664Y0362962D01*
X03508Y0362812D01*
X03508Y0362812D01*
X04043D01*
X04043Y0362812D01*
X0405436Y0362962D01*
X0406494Y03634D01*
X0407403Y0364097D01*
X0412367Y0369062D01*
X0420681D01*
Y0368115D01*
X0432105D01*
Y0358835D01*
X0420681D01*
Y0357888D01*
X0414482D01*
X0413636Y0358238D01*
X04125Y0358388D01*
X04125Y0358388D01*
X0403965D01*
X0403746Y0358716D01*
X0402716Y0359746D01*
X0401504Y0360556D01*
X0400158Y0361113D01*
X0398729Y0361398D01*
X0397271D01*
X0395842Y0361113D01*
X0394496Y0360556D01*
X0393284Y0359746D01*
X0392254Y0358716D01*
X0391444Y0357504D01*
X0390887Y0356158D01*
X0390602Y0354729D01*
Y0353271D01*
X0390887Y0351842D01*
X0391444Y0350496D01*
X0392254Y0349284D01*
X0393284Y0348254D01*
X0394496Y0347444D01*
X0395842Y0346887D01*
X0397271Y0346602D01*
X0398729D01*
X0400158Y0346887D01*
X0401504Y0347444D01*
X0402716Y0348254D01*
X0403746Y0349284D01*
X0403965Y0349612D01*
X0411018D01*
X0411864Y0349262D01*
X0413Y0349112D01*
X0413Y0349112D01*
X0420681D01*
Y0348165D01*
X0432105D01*
Y0338835D01*
X0420681D01*
Y0337741D01*
X0420664Y0337738D01*
X0419606Y03373D01*
X0418697Y0336603D01*
X0418697Y0336603D01*
X0405683Y0323588D01*
X039258D01*
X0392435Y0324066D01*
X0392716Y0324254D01*
X0393746Y0325284D01*
X0394556Y0326496D01*
X0395113Y0327842D01*
X0395398Y0329271D01*
Y0330729D01*
X0395113Y0332158D01*
X0394556Y0333504D01*
X0393746Y0334716D01*
X0392716Y0335746D01*
X0391504Y0336556D01*
X0390158Y0337113D01*
X0388729Y0337398D01*
X0387271D01*
X0386885Y0337321D01*
X0377103Y0347103D01*
X0376194Y03478D01*
X0375136Y0348238D01*
X0374Y0348388D01*
X0374Y0348388D01*
X0316441D01*
Y0348941D01*
X0306941D01*
X0306559Y0348941D01*
Y0348941D01*
X0306441D01*
Y0348941D01*
X0296559D01*
Y0340488D01*
X0268318D01*
X0252203Y0356603D01*
X0251294Y03573D01*
X0250236Y0357738D01*
X02491Y0357888D01*
X02491Y0357888D01*
X0111818D01*
X0111095Y035861D01*
X0111302Y035911D01*
X0112078D01*
X0113194Y0359409D01*
X0114195Y0359987D01*
X0115013Y0360805D01*
X0115591Y0361806D01*
X011589Y0362922D01*
Y0364078D01*
X0115591Y0365194D01*
X0115013Y0366195D01*
X0114195Y0367013D01*
X0113194Y0367591D01*
X0112078Y036789D01*
X0110922D01*
X0109806Y0367591D01*
X0108805Y0367013D01*
X0107987Y0366195D01*
X0107409Y0365194D01*
X0107243Y0364575D01*
X010676Y0364445D01*
X010589Y0365316D01*
Y036789D01*
X0098121D01*
X0097791Y0368266D01*
X0097888Y0369D01*
X0097888Y0369D01*
Y0385356D01*
X0098388Y038549D01*
X00988Y0384776D01*
X0099777Y0383799D01*
X0100975Y0383108D01*
X010231Y038275D01*
X0102501D01*
Y0388D01*
X0103001D01*
Y03885D01*
X0108251D01*
Y0388691D01*
X0107893Y0390026D01*
X0107202Y0391224D01*
X0106614Y0391812D01*
X0106821Y0392312D01*
X0110075D01*
X0110076Y0392312D01*
X0111211Y0392462D01*
X011227Y03929D01*
X0113178Y0393597D01*
X0116197Y0396616D01*
X0116987Y0396828D01*
X0118161Y0397505D01*
X0119119Y0398464D01*
X0119797Y0399638D01*
X0120148Y0400947D01*
Y0402302D01*
X0119797Y0403611D01*
X0119119Y0404785D01*
X0118954Y040495D01*
X0119146Y0405412D01*
X0125007D01*
X0129991Y0400427D01*
X0130203Y0399638D01*
X0130881Y0398464D01*
X0131839Y0397505D01*
X0133013Y0396828D01*
X0134322Y0396477D01*
X0135678D01*
X0136987Y0396828D01*
X0137695Y0397236D01*
X0179805D01*
X0180513Y0396828D01*
X0181822Y0396477D01*
X0183178D01*
X0184487Y0396828D01*
X0185661Y0397505D01*
X0186619Y0398464D01*
X0187297Y0399638D01*
X0187508Y0400427D01*
X0193293Y0406212D01*
X0199214D01*
X0199288Y0405935D01*
X0199308Y0405712D01*
X0198381Y0404785D01*
X0197703Y0403611D01*
X0197352Y0402302D01*
Y0400947D01*
X0197703Y0399638D01*
X0198381Y0398464D01*
X0199339Y0397505D01*
X0200513Y0396828D01*
X0201822Y0396477D01*
X0203178D01*
X0204487Y0396828D01*
X0205661Y0397505D01*
X0206619Y0398464D01*
X0207297Y0399638D01*
X0207648Y0400947D01*
Y0402302D01*
X0207297Y0403611D01*
X0206619Y0404785D01*
X0205692Y0405712D01*
X0205712Y0405935D01*
X0205786Y0406212D01*
X0232083D01*
X0236992Y0401303D01*
X0237203Y0400513D01*
X0237881Y0399339D01*
X0238839Y0398381D01*
X0240013Y0397703D01*
X0241322Y0397352D01*
X0242678D01*
X0243987Y0397703D01*
X0245161Y0398381D01*
X0246119Y0399339D01*
X0246797Y0400513D01*
X0247148Y0401822D01*
Y0403178D01*
X0246797Y0404487D01*
X0246119Y0405661D01*
X0245161Y0406619D01*
X0243987Y0407297D01*
X0243197Y0407509D01*
X0237003Y0413703D01*
X0236094Y04144D01*
X0235036Y0414838D01*
X02339Y0414988D01*
X02339Y0414988D01*
X0191476D01*
X0191476Y0414988D01*
X019034Y0414838D01*
X0189282Y04144D01*
X0188373Y0413703D01*
X0188373Y0413703D01*
X0181303Y0406633D01*
X0180513Y0406421D01*
X0179805Y0406012D01*
X0137695D01*
X0136987Y0406421D01*
X0136197Y0406633D01*
X0129927Y0412903D01*
X0129018Y04136D01*
X012796Y0414038D01*
X0126824Y0414188D01*
X0126824Y0414188D01*
X0073676D01*
X007254Y0414038D01*
X0071482Y04136D01*
X0070573Y0412903D01*
X0070573Y0412903D01*
X0064303Y0406633D01*
X0063513Y0406421D01*
X0062339Y0405744D01*
X0061381Y0404785D01*
X0060703Y0403611D01*
X0060352Y0402302D01*
Y0400947D01*
X0060703Y0399638D01*
X0061381Y0398464D01*
X0062339Y0397505D01*
X0063513Y0396828D01*
X0064822Y0396477D01*
X0066178D01*
X0067487Y0396828D01*
X0068661Y0397505D01*
X0069619Y0398464D01*
X0070297Y0399638D01*
X0070508Y0400427D01*
X0075493Y0405412D01*
X0081354D01*
X0081546Y040495D01*
X0081381Y0404785D01*
X0080703Y0403611D01*
X0080492Y0402821D01*
X0056391Y0378721D01*
X0055694Y0377812D01*
X0055255Y0376754D01*
X0055106Y0375618D01*
X0055106Y0375618D01*
Y0270707D01*
X0055106Y0270706D01*
X0055255Y0269571D01*
X0055694Y0268512D01*
X0056391Y0267604D01*
X0090951Y0233043D01*
X0090952Y0233043D01*
X009186Y0232346D01*
X0092918Y0231907D01*
X0094054Y0231758D01*
X0094054Y0231758D01*
X0130899D01*
X013109Y0231296D01*
X0127897Y0228103D01*
X01272Y0227194D01*
X0126762Y0226136D01*
X0126612Y0225D01*
X0126612Y0225D01*
Y0222085D01*
X012661Y0222078D01*
Y0220922D01*
X0126909Y0219806D01*
X0127487Y0218805D01*
X0128305Y0217987D01*
X0129306Y0217409D01*
X0130422Y021711D01*
X0131578D01*
X0132694Y0217409D01*
X0133695Y0217987D01*
X0134513Y0218805D01*
X0135091Y0219806D01*
X013539Y0220922D01*
Y0222078D01*
X0135388Y0222085D01*
Y0223183D01*
X0136608Y0224402D01*
X0137117Y0224359D01*
X0137343Y0223945D01*
X0136909Y0223194D01*
X013661Y0222078D01*
Y0220922D01*
X0136909Y0219806D01*
X0137487Y0218805D01*
X0138305Y0217987D01*
X0139306Y0217409D01*
X0140422Y021711D01*
X0141578D01*
X0142694Y0217409D01*
X0143695Y0217987D01*
X0144513Y0218805D01*
X0145091Y0219806D01*
X014539Y0220922D01*
Y0222078D01*
X0145091Y0223194D01*
X0144652Y0223955D01*
X0144934Y0224455D01*
X0147066D01*
X0147348Y0223955D01*
X0146909Y0223194D01*
X014661Y0222078D01*
Y0220922D01*
X0146909Y0219806D01*
X0147487Y0218805D01*
X0148305Y0217987D01*
X0149306Y0217409D01*
X0150422Y021711D01*
X0151578D01*
X0152694Y0217409D01*
X0153695Y0217987D01*
X0154513Y0218805D01*
X0155091Y0219806D01*
X015539Y0220922D01*
Y0222078D01*
X0155091Y0223194D01*
X0154652Y0223955D01*
X0154934Y0224455D01*
X0157066D01*
X0157348Y0223955D01*
X0156909Y0223194D01*
X015661Y0222078D01*
Y0220922D01*
X0156909Y0219806D01*
X0157487Y0218805D01*
X0158305Y0217987D01*
X0159306Y0217409D01*
X0160422Y021711D01*
X0161578D01*
X0162694Y0217409D01*
X0163695Y0217987D01*
X0164513Y0218805D01*
X0165091Y0219806D01*
X016539Y0220922D01*
Y0222078D01*
X0165091Y0223194D01*
X0164652Y0223955D01*
X0164934Y0224455D01*
X0167066D01*
X0167348Y0223955D01*
X0166909Y0223194D01*
X016661Y0222078D01*
Y0220922D01*
X0166909Y0219806D01*
X0167487Y0218805D01*
X0168305Y0217987D01*
X0169306Y0217409D01*
X0170422Y021711D01*
X0171578D01*
X0172694Y0217409D01*
X0173695Y0217987D01*
X0174513Y0218805D01*
X0175091Y0219806D01*
X017539Y0220922D01*
Y0222078D01*
X0175091Y0223194D01*
X0174652Y0223955D01*
X0174934Y0224455D01*
X0177066D01*
X0177348Y0223955D01*
X0176909Y0223194D01*
X017661Y0222078D01*
Y0220922D01*
X0176909Y0219806D01*
X0177487Y0218805D01*
X0178305Y0217987D01*
X0179306Y0217409D01*
X0180422Y021711D01*
X0181578D01*
X0182694Y0217409D01*
X0183695Y0217987D01*
X0184513Y0218805D01*
X0185091Y0219806D01*
X018539Y0220922D01*
Y0222078D01*
X0185091Y0223194D01*
X0184652Y0223955D01*
X0184934Y0224455D01*
X0187066D01*
X0187348Y0223955D01*
X0186909Y0223194D01*
X018661Y0222078D01*
Y0220922D01*
X0186909Y0219806D01*
X0187487Y0218805D01*
X0188305Y0217987D01*
X0189306Y0217409D01*
X0190422Y021711D01*
X0191578D01*
X0192694Y0217409D01*
X0193695Y0217987D01*
X0194513Y0218805D01*
X0195091Y0219806D01*
X019539Y0220922D01*
Y0222078D01*
X0195091Y0223194D01*
X0194652Y0223955D01*
X0194934Y0224455D01*
X0197066D01*
X0197348Y0223955D01*
X0196909Y0223194D01*
X019661Y0222078D01*
Y0220922D01*
X0196909Y0219806D01*
X0197487Y0218805D01*
X0198305Y0217987D01*
X0199306Y0217409D01*
X0200422Y021711D01*
X0201578D01*
X0202694Y0217409D01*
X0203695Y0217987D01*
X0204513Y0218805D01*
X0205091Y0219806D01*
X020539Y0220922D01*
Y0222078D01*
X0205091Y0223194D01*
X0204652Y0223955D01*
X0204934Y0224455D01*
X0207066D01*
X0207348Y0223955D01*
X0206909Y0223194D01*
X020661Y0222078D01*
Y0220922D01*
X0206909Y0219806D01*
X0207487Y0218805D01*
X0208305Y0217987D01*
X0209306Y0217409D01*
X0210422Y021711D01*
X0211578D01*
X0212694Y0217409D01*
X0213695Y0217987D01*
X0214513Y0218805D01*
X0215091Y0219806D01*
X021539Y0220922D01*
Y0222078D01*
X0215091Y0223194D01*
X0214652Y0223955D01*
X0214934Y0224455D01*
X0217066D01*
X0217348Y0223955D01*
X0216909Y0223194D01*
X021661Y0222078D01*
Y0220922D01*
X0216909Y0219806D01*
X0217487Y0218805D01*
X0218305Y0217987D01*
X0219306Y0217409D01*
X0220422Y021711D01*
X0221578D01*
X0222694Y0217409D01*
X0223695Y0217987D01*
X0224513Y0218805D01*
X0225091Y0219806D01*
X022539Y0220922D01*
Y0222078D01*
X0225091Y0223194D01*
X0224652Y0223955D01*
X0224934Y0224455D01*
X0227066D01*
X0227348Y0223955D01*
X0226909Y0223194D01*
X022661Y0222078D01*
Y0220922D01*
X0226909Y0219806D01*
X0227487Y0218805D01*
X0228305Y0217987D01*
X0229306Y0217409D01*
X0230422Y021711D01*
X0231578D01*
X0232694Y0217409D01*
X0233695Y0217987D01*
X0234513Y0218805D01*
X0235091Y0219806D01*
X023539Y0220922D01*
Y0222078D01*
X0235091Y0223194D01*
X0234652Y0223955D01*
X0234934Y0224455D01*
X023661D01*
Y021711D01*
X024539D01*
Y0225237D01*
X0246045Y022574D01*
X0260503Y0240197D01*
X02612Y0241106D01*
X0261638Y0242164D01*
X0261788Y02433D01*
X0261638Y0244436D01*
X02612Y0245494D01*
X0260503Y0246403D01*
X0259594Y02471D01*
X0258536Y0247538D01*
X02574Y0247688D01*
X0256264Y0247538D01*
X0255206Y02471D01*
X0254297Y0246403D01*
X0241125Y023323D01*
X0151489D01*
X0151298Y0233693D01*
X0154063Y0236458D01*
X0154063Y0236458D01*
X0154761Y0237367D01*
X0155199Y0238425D01*
X0155349Y0239561D01*
X0155349Y0239561D01*
Y0242398D01*
X015568Y0242971D01*
X0156242D01*
X0156801Y0242002D01*
X0157769Y0241034D01*
X0158954Y024035D01*
X0160276Y0239995D01*
X0161645D01*
X0162967Y024035D01*
X0164152Y0241034D01*
X016512Y0242002D01*
X016568Y0242971D01*
X0166242D01*
X0166801Y0242002D01*
X0167769Y0241034D01*
X0168954Y024035D01*
X0170276Y0239995D01*
X0171645D01*
X0172967Y024035D01*
X0174152Y0241034D01*
X017512Y0242002D01*
X017568Y0242971D01*
X0176242D01*
X0176801Y0242002D01*
X0177769Y0241034D01*
X0178954Y024035D01*
X0180276Y0239995D01*
X0181645D01*
X0182967Y024035D01*
X0184152Y0241034D01*
X018512Y0242002D01*
X018568Y0242971D01*
X0186242D01*
X0186801Y0242002D01*
X0187769Y0241034D01*
X0188954Y024035D01*
X0190276Y0239995D01*
X0191645D01*
X0192967Y024035D01*
X0194152Y0241034D01*
X019512Y0242002D01*
X019568Y0242971D01*
X0196242D01*
X0196801Y0242002D01*
X0197769Y0241034D01*
X0198954Y024035D01*
X0200276Y0239995D01*
X0201645D01*
X0202967Y024035D01*
X0204152Y0241034D01*
X020512Y0242002D01*
X020568Y0242971D01*
X0206242D01*
X0206802Y0242002D01*
X0207769Y0241034D01*
X0208954Y024035D01*
X0210276Y0239995D01*
X0211645D01*
X0212967Y024035D01*
X0214152Y0241034D01*
X021512Y0242002D01*
X021568Y0242971D01*
X0216242D01*
X0216802Y0242002D01*
X0217769Y0241034D01*
X0218954Y024035D01*
X0220276Y0239995D01*
X0221645D01*
X0222967Y024035D01*
X0224152Y0241034D01*
X022512Y0242002D01*
X022568Y0242971D01*
X0226242D01*
X0226801Y0242002D01*
X0227769Y0241034D01*
X0228954Y024035D01*
X0230276Y0239995D01*
X0231645D01*
X0232967Y024035D01*
X0234152Y0241034D01*
X023512Y0242002D01*
X023568Y0242971D01*
X0236242D01*
X0236802Y0242002D01*
X0237769Y0241034D01*
X0238954Y024035D01*
X0240276Y0239995D01*
X0241645D01*
X0242967Y024035D01*
X0244152Y0241034D01*
X024512Y0242002D01*
X0245804Y0243187D01*
X0246158Y0244509D01*
Y0245877D01*
X0245804Y0247199D01*
X024512Y0248384D01*
X0244152Y0249352D01*
X0242967Y0250036D01*
X0241645Y0250391D01*
X0240276D01*
X0238954Y0250036D01*
X0237769Y0249352D01*
X0236802Y0248384D01*
X0236242Y0247415D01*
X023568D01*
X023512Y0248384D01*
X0234152Y0249352D01*
X0232967Y0250036D01*
X0231645Y0250391D01*
X0230276D01*
X0228954Y0250036D01*
X0227769Y0249352D01*
X0226801Y0248384D01*
X0226242Y0247415D01*
X022568D01*
X022512Y0248384D01*
X0224152Y0249352D01*
X0222967Y0250036D01*
X0221645Y0250391D01*
X0220276D01*
X0218954Y0250036D01*
X0217769Y0249352D01*
X0216802Y0248384D01*
X0216242Y0247415D01*
X021568D01*
X021512Y0248384D01*
X0214152Y0249352D01*
X0212967Y0250036D01*
X0211645Y0250391D01*
X0210276D01*
X0208954Y0250036D01*
X0207769Y0249352D01*
X0206802Y0248384D01*
X0206242Y0247415D01*
X020568D01*
X020512Y0248384D01*
X0204152Y0249352D01*
X0202967Y0250036D01*
X0201645Y0250391D01*
X0200276D01*
X0198954Y0250036D01*
X0197769Y0249352D01*
X0196801Y0248384D01*
X0196242Y0247415D01*
X019568D01*
X019512Y0248384D01*
X0194152Y0249352D01*
X0192967Y0250036D01*
X0191645Y0250391D01*
X0190276D01*
X0188954Y0250036D01*
X0187769Y0249352D01*
X0186801Y0248384D01*
X0186242Y0247415D01*
X018568D01*
X018512Y0248384D01*
X0184152Y0249352D01*
X0182967Y0250036D01*
X0181645Y0250391D01*
X0180276D01*
X0178954Y0250036D01*
X0177769Y0249352D01*
X0176801Y0248384D01*
X0176242Y0247415D01*
X017568D01*
X017512Y0248384D01*
X0174152Y0249352D01*
X0172967Y0250036D01*
X0171645Y0250391D01*
X0170276D01*
X0168954Y0250036D01*
X0167769Y0249352D01*
X0166801Y0248384D01*
X0166242Y0247415D01*
X016568D01*
X0165348Y0247988D01*
Y025256D01*
X0165348Y0252561D01*
X0165199Y0253696D01*
X0164761Y0254755D01*
X0164063Y0255663D01*
X0164063Y0255663D01*
X0153824Y0265903D01*
X0152915Y02666D01*
X0151857Y0267038D01*
X0150721Y0267188D01*
X0150721Y0267188D01*
X0087314D01*
X0071185Y0283317D01*
Y0284588D01*
X0071633Y0284809D01*
X0071906Y02846D01*
X0072964Y0284162D01*
X00741Y0284012D01*
X01805D01*
X01805Y0284012D01*
X0181636Y0284162D01*
X0182694Y02846D01*
X0183603Y0285297D01*
X0214063Y0315758D01*
X0214063Y0315758D01*
X0214761Y0316667D01*
X0215199Y0317725D01*
X0215349Y0318861D01*
Y0339917D01*
X021568Y0340491D01*
X0216242D01*
X0216802Y0339521D01*
X0217769Y0338554D01*
X0218954Y0337869D01*
X0220276Y0337515D01*
X0221645D01*
X0222967Y0337869D01*
X0224152Y0338554D01*
X022512Y0339521D01*
X022568Y0340491D01*
X0226242D01*
X0226801Y0339521D01*
X0227769Y0338554D01*
X0228954Y0337869D01*
X0230276Y0337515D01*
X0231645D01*
X0232967Y0337869D01*
X0234152Y0338554D01*
X023512Y0339521D01*
X023568Y0340491D01*
X0236242D01*
X0236802Y0339521D01*
X0237769Y0338554D01*
X0238954Y0337869D01*
X0240276Y0337515D01*
X0241645D01*
X0242967Y0337869D01*
X0244152Y0338554D01*
X024512Y0339521D01*
X0245804Y0340706D01*
X0246158Y0342028D01*
Y0343397D01*
X0245804Y0344719D01*
X024512Y0345904D01*
X0244152Y0346872D01*
X0242967Y0347556D01*
X0241645Y034791D01*
X0240276D01*
X0238954Y0347556D01*
X0237769Y0346872D01*
X0236802Y0345904D01*
X0236242Y0344934D01*
X023568D01*
X023512Y0345904D01*
X0234152Y0346872D01*
X0232967Y0347556D01*
X0231645Y034791D01*
X0230276D01*
X0228954Y0347556D01*
X0227769Y0346872D01*
X0226801Y0345904D01*
X0226242Y0344934D01*
X022568D01*
X022512Y0345904D01*
X0224152Y0346872D01*
X0222967Y0347556D01*
X0221645Y034791D01*
X0220276D01*
X0218954Y0347556D01*
X0217769Y0346872D01*
X0216802Y0345904D01*
X0216242Y0344934D01*
X021568D01*
X021512Y0345904D01*
X0214152Y0346872D01*
X0212967Y0347556D01*
X0211645Y034791D01*
X0210276D01*
X0208954Y0347556D01*
X0207769Y0346872D01*
X0206802Y0345904D01*
X0206242Y0344934D01*
X020568D01*
X020512Y0345904D01*
X0204152Y0346872D01*
X0202967Y0347556D01*
X0201645Y034791D01*
X0200276D01*
X0198954Y0347556D01*
X0197769Y0346872D01*
X0196801Y0345904D01*
X0196242Y0344934D01*
X019568D01*
X019512Y0345904D01*
X0194152Y0346872D01*
X0192967Y0347556D01*
X0191645Y034791D01*
X0190276D01*
X0188954Y0347556D01*
X0187769Y0346872D01*
X0186801Y0345904D01*
X0186242Y0344934D01*
X018568D01*
X018512Y0345904D01*
X0184152Y0346872D01*
X0182967Y0347556D01*
X0181645Y034791D01*
X0180276D01*
X0178954Y0347556D01*
X0177769Y0346872D01*
X0176801Y0345904D01*
X0176242Y0344934D01*
X017568D01*
X017512Y0345904D01*
X0174152Y0346872D01*
X0172967Y0347556D01*
X0171645Y034791D01*
X0170276D01*
X0168954Y0347556D01*
X0167769Y0346872D01*
X0166801Y0345904D01*
X0166242Y0344934D01*
X016568D01*
X016512Y0345904D01*
X0164152Y0346872D01*
X0162967Y0347556D01*
X0161645Y034791D01*
X0160276D01*
X0158954Y0347556D01*
X0157769Y0346872D01*
X0156801Y0345904D01*
X0156242Y0344934D01*
X015568D01*
X015512Y0345904D01*
X0154152Y0346872D01*
X0152967Y0347556D01*
X0151645Y034791D01*
X0150276D01*
X0148954Y0347556D01*
X0147769Y0346872D01*
X0146801Y0345904D01*
X0146242Y0344934D01*
X014568D01*
X014512Y0345904D01*
X0144152Y0346872D01*
X0142967Y0347556D01*
X0141645Y034791D01*
X0140276D01*
X0138954Y0347556D01*
X0137769Y0346872D01*
X0136801Y0345904D01*
X0136242Y0344934D01*
X013568D01*
X013512Y0345904D01*
X0134152Y0346872D01*
X0132967Y0347556D01*
X0131645Y034791D01*
X0130276D01*
X0128954Y0347556D01*
X0127769Y0346872D01*
X0126801Y0345904D01*
X0126242Y0344934D01*
X012568D01*
X012512Y0345904D01*
X0124152Y0346872D01*
X0122967Y0347556D01*
X0121645Y034791D01*
X0120276D01*
X0118954Y0347556D01*
X0117769Y0346872D01*
X0116801Y0345904D01*
X0116242Y0344934D01*
X011568D01*
X011512Y0345904D01*
X0114152Y0346872D01*
X0112967Y0347556D01*
X0111645Y034791D01*
X0110276D01*
X0108954Y0347556D01*
X0107769Y0346872D01*
X0106801Y0345904D01*
X0106242Y0344934D01*
X010568D01*
X010512Y0345904D01*
X0104152Y0346872D01*
X0102967Y0347556D01*
X0101645Y034791D01*
X0100276D01*
X0098954Y0347556D01*
X0097769Y0346872D01*
X0096801Y0345904D01*
X0096117Y0344719D01*
X0095763Y0343397D01*
Y0342028D01*
X0096117Y0340706D01*
X0096801Y0339521D01*
X0097769Y0338554D01*
X0098954Y0337869D01*
X0100276Y0337515D01*
X0101645D01*
X0102967Y0337869D01*
X0104152Y0338554D01*
X010512Y0339521D01*
X010568Y0340491D01*
X0106242D01*
X0106801Y0339521D01*
X0107769Y0338554D01*
X0108954Y0337869D01*
X0110276Y0337515D01*
X0111645D01*
X0112967Y0337869D01*
X0114152Y0338554D01*
X011512Y0339521D01*
X011568Y0340491D01*
X0116242D01*
X0116801Y0339521D01*
X0117769Y0338554D01*
X0118954Y0337869D01*
X0120276Y0337515D01*
X0121645D01*
X0122967Y0337869D01*
X0124152Y0338554D01*
X012512Y0339521D01*
X012568Y0340491D01*
X0126242D01*
X0126801Y0339521D01*
X0127769Y0338554D01*
X0128954Y0337869D01*
X0130276Y0337515D01*
X0131645D01*
X0132967Y0337869D01*
X0134152Y0338554D01*
X013512Y0339521D01*
X013568Y0340491D01*
X0136242D01*
X0136801Y0339521D01*
X0137769Y0338554D01*
X0138954Y0337869D01*
X0140276Y0337515D01*
X0141645D01*
X0142967Y0337869D01*
X0144152Y0338554D01*
X014512Y0339521D01*
X014568Y0340491D01*
X0146242D01*
X0146801Y0339521D01*
X0147769Y0338554D01*
X0148954Y0337869D01*
X0150276Y0337515D01*
X0151645D01*
X0152967Y0337869D01*
X0154152Y0338554D01*
X015512Y0339521D01*
X015568Y0340491D01*
X0156242D01*
X0156801Y0339521D01*
X0157769Y0338554D01*
X0158954Y0337869D01*
X0160276Y0337515D01*
X0161645D01*
X0162967Y0337869D01*
X0164152Y0338554D01*
X016512Y0339521D01*
X016568Y0340491D01*
X0166242D01*
X0166801Y0339521D01*
X0167769Y0338554D01*
X0168954Y0337869D01*
X0170276Y0337515D01*
X0171645D01*
X0172967Y0337869D01*
X0174152Y0338554D01*
X017512Y0339521D01*
X017568Y0340491D01*
X0176242D01*
X0176801Y0339521D01*
X0177769Y0338554D01*
X0178954Y0337869D01*
X0180276Y0337515D01*
X0181645D01*
X0182967Y0337869D01*
X0184152Y0338554D01*
X018512Y0339521D01*
X018568Y0340491D01*
X0186242D01*
X0186801Y0339521D01*
X0187769Y0338554D01*
X0188954Y0337869D01*
X0190276Y0337515D01*
X0191645D01*
X0192967Y0337869D01*
X0194152Y0338554D01*
X019512Y0339521D01*
X019568Y0340491D01*
X0196242D01*
X0196573Y0339917D01*
Y0328017D01*
X0180543Y0311988D01*
X0081797D01*
X008159Y0312488D01*
X0090903Y03218D01*
X0090903Y03218D01*
X00916Y0322709D01*
X0092038Y0323767D01*
X0092188Y0324903D01*
X0092188Y0324903D01*
Y0361483D01*
X0096603Y0365897D01*
X0096603Y0365897D01*
X0096637Y0365942D01*
X009711Y0365781D01*
Y035911D01*
X0099684D01*
X010046Y0358334D01*
X0100562Y0357564D01*
X0101Y0356506D01*
X0101697Y0355597D01*
X0106897Y0350397D01*
X0106897Y0350397D01*
X0107806Y03497D01*
X0108864Y0349262D01*
X011Y0349112D01*
X011Y0349112D01*
X0247283D01*
X0263397Y0332997D01*
X0263397Y0332997D01*
X0264306Y03323D01*
X0265364Y0331862D01*
X02665Y0331712D01*
X02665Y0331712D01*
X03076D01*
X03076Y0331712D01*
X0308736Y0331862D01*
X0309794Y03323D01*
X0310703Y0332997D01*
X0314603Y0336897D01*
X0314603Y0336897D01*
X03153Y0337806D01*
X0315738Y0338864D01*
X0315764Y0339059D01*
X0316441D01*
Y0339612D01*
X0372182D01*
X0380679Y0331115D01*
X0380602Y0330729D01*
Y0329271D01*
X0380887Y0327842D01*
X0381444Y0326496D01*
X0382254Y0325284D01*
X0383284Y0324254D01*
X0383565Y0324066D01*
X038342Y0323588D01*
X0352618D01*
X0347321Y0328885D01*
X0347398Y0329271D01*
Y0330729D01*
X0347113Y0332158D01*
X0346556Y0333504D01*
X0345746Y0334716D01*
X0344716Y0335746D01*
X0343504Y0336556D01*
X0342158Y0337113D01*
X0340729Y0337398D01*
X0339271D01*
X0337842Y0337113D01*
X0336496Y0336556D01*
X0335284Y0335746D01*
X0334254Y0334716D01*
X0333444Y0333504D01*
X0332887Y0332158D01*
X0332602Y0330729D01*
Y0329271D01*
X0332887Y0327842D01*
X0333444Y0326496D01*
X0334254Y0325284D01*
X0335284Y0324254D01*
X0336496Y0323444D01*
X0337842Y0322887D01*
X0339271Y0322602D01*
X0340729D01*
X0341115Y0322679D01*
X0347145Y031665D01*
X0346953Y0316188D01*
X03026D01*
X03026Y0316188D01*
X0301464Y0316038D01*
X0300406Y03156D01*
X0299497Y0314903D01*
X0299497Y0314903D01*
X0292697Y0308103D01*
X0292Y0307194D01*
X0291562Y0306136D01*
X0291412Y0305D01*
X0291412Y0305D01*
Y02957D01*
X0291412Y02957D01*
X0291562Y0294564D01*
X0292Y0293506D01*
X0292697Y0292597D01*
X0293921Y0291374D01*
X0294157Y0290494D01*
X0294841Y0289309D01*
X0295809Y0288341D01*
X0296994Y0287657D01*
X0298316Y0287302D01*
X0299684D01*
X0301006Y0287657D01*
X0302191Y0288341D01*
X0303159Y0289309D01*
X0303843Y0290494D01*
X0303947Y029088D01*
X0304465D01*
X0304527Y0290647D01*
X0305159Y0289553D01*
X0306053Y0288659D01*
X0307147Y0288027D01*
X0308368Y02877D01*
X03085D01*
Y02925D01*
X0309D01*
Y0293D01*
X03138D01*
Y0293132D01*
X0313473Y0294353D01*
X0312841Y0295447D01*
X0311947Y0296341D01*
X0310853Y0296973D01*
X0309632Y02973D01*
X0308943D01*
X0308693Y0297733D01*
X0308843Y0297994D01*
X0309198Y0299316D01*
Y0300684D01*
X0308843Y0302006D01*
X0308159Y0303191D01*
X0307191Y0304159D01*
X0306006Y0304843D01*
X0304684Y0305198D01*
X0303316D01*
X0302762Y0305049D01*
X0302503Y0305498D01*
X0304417Y0307412D01*
X0370382D01*
X0380679Y0297115D01*
X0380602Y0296729D01*
Y0295271D01*
X0380887Y0293842D01*
X0381444Y0292496D01*
X0382254Y0291284D01*
X0383284Y0290254D01*
X0383565Y0290066D01*
X038342Y0289588D01*
X0352618D01*
X0347321Y0294885D01*
X0347398Y0295271D01*
Y0296729D01*
X0347113Y0298158D01*
X0346556Y0299504D01*
X0345746Y0300716D01*
X0344716Y0301746D01*
X0343504Y0302556D01*
X0342158Y0303113D01*
X0340729Y0303398D01*
X0339271D01*
X0337842Y0303113D01*
X0336496Y0302556D01*
X0335284Y0301746D01*
X0334254Y0300716D01*
X0333444Y0299504D01*
X0332887Y0298158D01*
X0332602Y0296729D01*
Y0295271D01*
X0332887Y0293842D01*
X0333444Y0292496D01*
X0334254Y0291284D01*
X0335284Y0290254D01*
X0336496Y0289444D01*
X0337842Y0288887D01*
X0339271Y0288602D01*
X0340729D01*
X0341115Y0288679D01*
X0347697Y0282097D01*
X0347697Y0282097D01*
X0348606Y02814D01*
X0349664Y0280962D01*
X03508Y0280812D01*
X03508Y0280812D01*
X04038D01*
X04038Y0280812D01*
X0404936Y0280962D01*
X0405994Y02814D01*
X0406903Y0282097D01*
X0411368Y0286562D01*
X0419181D01*
Y0285615D01*
X0431819D01*
X0432105Y0285234D01*
Y0276716D01*
X0431819Y0276335D01*
X0431605Y0276335D01*
X0419181D01*
Y0275388D01*
X0414531D01*
X0413994Y02758D01*
X0412936Y0276238D01*
X04118Y0276388D01*
X04118Y0276388D01*
X0403965D01*
X0403746Y0276716D01*
X0402716Y0277746D01*
X0401504Y0278556D01*
X0400158Y0279113D01*
X0398729Y0279398D01*
X0397271D01*
X0395842Y0279113D01*
X0394496Y0278556D01*
X0393284Y0277746D01*
X0392254Y0276716D01*
X0391444Y0275504D01*
X0390887Y0274158D01*
X0390602Y0272729D01*
Y0271271D01*
X0390887Y0269842D01*
X0391444Y0268496D01*
X0392254Y0267284D01*
X0393284Y0266254D01*
X0394496Y0265444D01*
X0395842Y0264887D01*
X0397271Y0264602D01*
X0398729D01*
X0400158Y0264887D01*
X0401504Y0265444D01*
X0402716Y0266254D01*
X0403746Y0267284D01*
X0403965Y0267612D01*
X0410069D01*
X0410606Y02672D01*
X0411664Y0266762D01*
X04128Y0266612D01*
X0419181D01*
Y0265665D01*
X0431605D01*
X0431819Y0265665D01*
X0432105Y0265284D01*
Y0256716D01*
X0431819Y0256335D01*
X0431605Y0256335D01*
X0419181D01*
Y0255163D01*
X0418306Y02548D01*
X0417397Y0254103D01*
X0417397Y0254103D01*
X0404882Y0241588D01*
X039258D01*
X0392435Y0242066D01*
X0392716Y0242254D01*
X0393746Y0243284D01*
X0394556Y0244496D01*
X0395113Y0245842D01*
X0395398Y0247271D01*
Y0248729D01*
X0395113Y0250158D01*
X0394556Y0251504D01*
X0393746Y0252716D01*
X0392716Y0253746D01*
X0391504Y0254556D01*
X0390158Y0255113D01*
X0388729Y0255398D01*
X0387271D01*
X0386885Y0255321D01*
X0380303Y0261903D01*
X0379394Y02626D01*
X0378336Y0263038D01*
X03772Y0263188D01*
X03772Y0263188D01*
X03153D01*
X03153Y0263188D01*
X0314164Y0263038D01*
X0313106Y02626D01*
X0312197Y0261903D01*
X0312197Y0261903D01*
X0307236Y0256941D01*
X0303941D01*
X0303559Y0256941D01*
X0303059Y0256941D01*
X0293559D01*
Y0247059D01*
X0303059D01*
X0303441Y0247059D01*
X0303759D01*
X0304112Y0246706D01*
Y0181817D01*
X0301183Y0178888D01*
X0199085D01*
X0199078Y017889D01*
X0197922D01*
X0196806Y0178591D01*
X0195805Y0178013D01*
X0194987Y0177195D01*
X0194409Y0176194D01*
X019411Y0175078D01*
Y0173922D01*
X0194409Y0172806D01*
X0194987Y0171805D01*
X0195805Y0170987D01*
X0196806Y0170409D01*
X0197922Y017011D01*
X0199078D01*
X0199085Y0170112D01*
X0303D01*
X0303Y0170112D01*
X0304136Y0170262D01*
X0305194Y01707D01*
X0306103Y0171397D01*
X0311603Y0176897D01*
X0311603Y0176897D01*
X03123Y0177806D01*
X0312738Y0178864D01*
X0312888Y018D01*
Y0247059D01*
X0313441D01*
Y0250735D01*
X0317118Y0254412D01*
X033542D01*
X0335565Y0253934D01*
X0335284Y0253746D01*
X0334254Y0252716D01*
X0333444Y0251504D01*
X0332887Y0250158D01*
X0332602Y0248729D01*
Y0247271D01*
X0332887Y0245842D01*
X0333444Y0244496D01*
X0334254Y0243284D01*
X0335284Y0242254D01*
X0336496Y0241444D01*
X0337842Y0240887D01*
X0339271Y0240602D01*
X0340729D01*
X0341115Y0240679D01*
X0347697Y0234097D01*
X0347697Y0234097D01*
X0348606Y02334D01*
X0349664Y0232962D01*
X03508Y0232812D01*
X03508Y0232812D01*
X04067D01*
X04067Y0232812D01*
X0407836Y0232962D01*
X0408894Y02334D01*
X0409803Y0234097D01*
X0421371Y0245665D01*
X0431605D01*
X0431819Y0245665D01*
X0432105Y0245284D01*
Y0094395D01*
X0051395D01*
Y0434105D01*
X0102032D01*
X0102098Y0433605D01*
X0100821Y0433263D01*
X0099533Y0432519D01*
X0098482Y0431468D01*
X0097738Y043018D01*
X0097353Y0428744D01*
Y0427256D01*
X0097738Y042582D01*
X0098482Y0424532D01*
X0099533Y0423481D01*
X0100821Y0422737D01*
X0102258Y0422352D01*
X0103744D01*
X0105181Y0422737D01*
X0106469Y0423481D01*
X010752Y0424532D01*
X0108264Y042582D01*
X0108649Y0427256D01*
Y0428744D01*
X0108264Y043018D01*
X010752Y0431468D01*
X0106469Y0432519D01*
X0105181Y0433263D01*
X0103904Y0433605D01*
X010397Y0434105D01*
X0149031D01*
X0149097Y0433605D01*
X014782Y0433263D01*
X0146532Y0432519D01*
X0145481Y0431468D01*
X0144737Y043018D01*
X0144352Y0428744D01*
Y0427256D01*
X0144737Y042582D01*
X0145481Y0424532D01*
X0146532Y0423481D01*
X014782Y0422737D01*
X0149257Y0422352D01*
X0150743D01*
X015218Y0422737D01*
X0153468Y0423481D01*
X0154519Y0424532D01*
X0155263Y042582D01*
X0155648Y0427256D01*
Y0428744D01*
X0155263Y043018D01*
X0154519Y0431468D01*
X0153468Y0432519D01*
X015218Y0433263D01*
X0150903Y0433605D01*
X0150969Y0434105D01*
X0168532D01*
X0168598Y0433605D01*
X0167321Y0433263D01*
X0166033Y0432519D01*
X0164982Y0431468D01*
X0164238Y043018D01*
X0163853Y0428744D01*
Y0427256D01*
X0164238Y042582D01*
X0164982Y0424532D01*
X0166033Y0423481D01*
X0167321Y0422737D01*
X0168757Y0422352D01*
X0170245D01*
X0171681Y0422737D01*
X0172969Y0423481D01*
X017402Y0424532D01*
X0174764Y042582D01*
X0175149Y0427256D01*
Y0428744D01*
X0174764Y043018D01*
X017402Y0431468D01*
X0172969Y0432519D01*
X0171681Y0433263D01*
X0170404Y0433605D01*
X017047Y0434105D01*
X0221531D01*
X0221597Y0433605D01*
X022032Y0433263D01*
X0219032Y0432519D01*
X0217981Y0431468D01*
X0217237Y043018D01*
X0216852Y0428744D01*
Y0427256D01*
X0217237Y042582D01*
X0217981Y0424532D01*
X0219032Y0423481D01*
X022032Y0422737D01*
X0221757Y0422352D01*
X0223243D01*
X022468Y0422737D01*
X0225968Y0423481D01*
X0226099Y0423612D01*
X0234682D01*
X0256992Y0401303D01*
X0257203Y0400513D01*
X0257881Y0399339D01*
X0258839Y0398381D01*
X0260013Y0397703D01*
X0261322Y0397352D01*
X0262678D01*
X0263987Y0397703D01*
X0265161Y0398381D01*
X0266119Y0399339D01*
X0266797Y0400513D01*
X0267148Y0401822D01*
Y0403178D01*
X0266797Y0404487D01*
X0266119Y0405661D01*
X0265161Y0406619D01*
X0263987Y0407297D01*
X0263197Y0407509D01*
X0239603Y0431103D01*
X0238694Y04318D01*
X0237636Y0432238D01*
X02365Y0432388D01*
X02365Y0432388D01*
X0226099D01*
X0225968Y0432519D01*
X022468Y0433263D01*
X0223403Y0433605D01*
X0223469Y0434105D01*
X0432105D01*
Y0378785D01*
D02*
G37*
G36*
X0082394Y0259697D02*
X0082394Y0259697D01*
X0083303Y0259D01*
X0084361Y0258562D01*
X0085497Y0258412D01*
X0148904D01*
X0156573Y0250743D01*
Y0247988D01*
X0156242Y0247415D01*
X015568D01*
X015512Y0248384D01*
X0154152Y0249352D01*
X0152967Y0250036D01*
X0151645Y0250391D01*
X0150276D01*
X0148954Y0250036D01*
X0147769Y0249352D01*
X0146801Y0248384D01*
X0146242Y0247415D01*
X014568D01*
X014512Y0248384D01*
X0144152Y0249352D01*
X0142967Y0250036D01*
X0141645Y0250391D01*
X0140276D01*
X0138954Y0250036D01*
X0137769Y0249352D01*
X0136801Y0248384D01*
X0136242Y0247415D01*
X013568D01*
X013512Y0248384D01*
X0134152Y0249352D01*
X0132967Y0250036D01*
X0131645Y0250391D01*
X0130276D01*
X0128954Y0250036D01*
X0127769Y0249352D01*
X0126801Y0248384D01*
X0126242Y0247415D01*
X012568D01*
X012512Y0248384D01*
X0124152Y0249352D01*
X0122967Y0250036D01*
X0121645Y0250391D01*
X0120276D01*
X0118954Y0250036D01*
X0117769Y0249352D01*
X0116801Y0248384D01*
X0116117Y0247199D01*
X0116014Y0246813D01*
X0115496D01*
X0115434Y0247046D01*
X0114802Y024814D01*
X0113908Y0249034D01*
X0112813Y0249666D01*
X0111592Y0249993D01*
X0111461D01*
Y0245193D01*
X0110461D01*
Y0249993D01*
X0110329D01*
X0109108Y0249666D01*
X0108013Y0249034D01*
X010712Y024814D01*
X0106488Y0247046D01*
X0106425Y0246813D01*
X0105908D01*
X0105804Y0247199D01*
X010512Y0248384D01*
X0104152Y0249352D01*
X0102967Y0250036D01*
X0101645Y0250391D01*
X0100276D01*
X0098954Y0250036D01*
X0097769Y0249352D01*
X0096801Y0248384D01*
X0096117Y0247199D01*
X0095763Y0245877D01*
Y0244509D01*
X0096117Y0243187D01*
X0096801Y0242002D01*
X0097769Y0241034D01*
X0097799Y0241017D01*
X009767Y0240534D01*
X0095872D01*
X0063881Y0272524D01*
Y0277556D01*
X0064344Y0277748D01*
X0082394Y0259697D01*
D02*
G37*
%LPC*%
G36*
X03602Y0416188D02*
X03602Y0416188D01*
X02975D01*
X02975Y0416188D01*
X0296364Y0416038D01*
X0295306Y04156D01*
X0294397Y0414903D01*
X0294397Y0414903D01*
X0263182Y0383688D01*
X022632D01*
X0226113Y0384188D01*
X0226701Y0384776D01*
X0227392Y0385974D01*
X022775Y0387309D01*
Y03875D01*
X02225D01*
X021725D01*
Y0387309D01*
X0217608Y0385974D01*
X0218299Y0384776D01*
X0218887Y0384188D01*
X021868Y0383688D01*
X01937D01*
X01937Y0383688D01*
X0192564Y0383538D01*
X0191506Y03831D01*
X0190597Y0382403D01*
X0190597Y0382403D01*
X0178397Y0370203D01*
X01777Y0369294D01*
X0177262Y0368236D01*
X0177112Y03671D01*
X0177112Y03671D01*
Y0364085D01*
X017711Y0364078D01*
Y0362922D01*
X0177409Y0361806D01*
X0177987Y0360805D01*
X0178805Y0359987D01*
X0179806Y0359409D01*
X0180922Y035911D01*
X0182078D01*
X0183194Y0359409D01*
X0184195Y0359987D01*
X0185013Y0360805D01*
X0185591Y0361806D01*
X018589Y0362922D01*
Y0364078D01*
X0185888Y0364085D01*
Y0365283D01*
X0195518Y0374912D01*
X0265D01*
X0265Y0374912D01*
X0266136Y0375062D01*
X0267194Y03755D01*
X0268103Y0376197D01*
X0299318Y0407412D01*
X0358383D01*
X0365352Y0400442D01*
Y0400256D01*
X0365737Y039882D01*
X0366481Y0397532D01*
X0367532Y0396481D01*
X036882Y0395737D01*
X0370256Y0395352D01*
X0371743D01*
X037318Y0395737D01*
X0374468Y0396481D01*
X0375519Y0397532D01*
X0376263Y039882D01*
X0376648Y0400256D01*
Y0401744D01*
X0376263Y040318D01*
X0375519Y0404468D01*
X0374468Y0405519D01*
X037318Y0406263D01*
X0371743Y0406648D01*
X0371558D01*
X0363303Y0414903D01*
X0362394Y04156D01*
X0361336Y0416038D01*
X03602Y0416188D01*
D02*
G37*
G36*
X0331744Y0406648D02*
X0330257D01*
X032882Y0406263D01*
X0327532Y0405519D01*
X0326481Y0404468D01*
X0325737Y040318D01*
X0325352Y0401744D01*
Y0400256D01*
X0325737Y039882D01*
X0326481Y0397532D01*
X0327532Y0396481D01*
X032882Y0395737D01*
X0330257Y0395352D01*
X0331744D01*
X033318Y0395737D01*
X0334468Y0396481D01*
X0335519Y0397532D01*
X0336263Y039882D01*
X0336648Y0400256D01*
Y0401744D01*
X0336263Y040318D01*
X0335519Y0404468D01*
X0334468Y0405519D01*
X033318Y0406263D01*
X0331744Y0406648D01*
D02*
G37*
G36*
X0223191Y039325D02*
X0223D01*
Y03885D01*
X022775D01*
Y0388691D01*
X0227392Y0390026D01*
X0226701Y0391224D01*
X0225724Y0392201D01*
X0224526Y0392892D01*
X0223191Y039325D01*
D02*
G37*
G36*
X0170192D02*
X0170001D01*
Y03885D01*
X0174751D01*
Y0388691D01*
X0174393Y0390026D01*
X0173702Y0391224D01*
X0172725Y0392201D01*
X0171527Y0392892D01*
X0170192Y039325D01*
D02*
G37*
G36*
X0150691D02*
X01505D01*
Y03885D01*
X015525D01*
Y0388691D01*
X0154892Y0390026D01*
X0154201Y0391224D01*
X0153224Y0392201D01*
X0152026Y0392892D01*
X0150691Y039325D01*
D02*
G37*
G36*
X0222D02*
X0221809D01*
X0220474Y0392892D01*
X0219276Y0392201D01*
X0218299Y0391224D01*
X0217608Y0390026D01*
X021725Y0388691D01*
Y03885D01*
X0222D01*
Y039325D01*
D02*
G37*
G36*
X0169001D02*
X016881D01*
X0167475Y0392892D01*
X0166277Y0392201D01*
X01653Y0391224D01*
X0164609Y0390026D01*
X0164251Y0388691D01*
Y03885D01*
X0169001D01*
Y039325D01*
D02*
G37*
G36*
X01495D02*
X0149309D01*
X0147974Y0392892D01*
X0146776Y0392201D01*
X0145799Y0391224D01*
X0145108Y0390026D01*
X014475Y0388691D01*
Y03885D01*
X01495D01*
Y039325D01*
D02*
G37*
G36*
X0174751Y03875D02*
X0170001D01*
Y038275D01*
X0170192D01*
X0171527Y0383108D01*
X0172725Y0383799D01*
X0173702Y0384776D01*
X0174393Y0385974D01*
X0174751Y0387309D01*
Y03875D01*
D02*
G37*
G36*
X0169001D02*
X0164251D01*
Y0387309D01*
X0164609Y0385974D01*
X01653Y0384776D01*
X0166277Y0383799D01*
X0167475Y0383108D01*
X016881Y038275D01*
X0169001D01*
Y03875D01*
D02*
G37*
G36*
X015525D02*
X01505D01*
Y038275D01*
X0150691D01*
X0152026Y0383108D01*
X0153224Y0383799D01*
X0154201Y0384776D01*
X0154892Y0385974D01*
X015525Y0387309D01*
Y03875D01*
D02*
G37*
G36*
X01495D02*
X014475D01*
Y0387309D01*
X0145108Y0385974D01*
X0145799Y0384776D01*
X0146776Y0383799D01*
X0147974Y0383108D01*
X0149309Y038275D01*
X01495D01*
Y03875D01*
D02*
G37*
G36*
X0108251D02*
X0103501D01*
Y038275D01*
X0103692D01*
X0105027Y0383108D01*
X0106225Y0383799D01*
X0107202Y0384776D01*
X0107893Y0385974D01*
X0108251Y0387309D01*
Y03875D01*
D02*
G37*
G36*
X03183Y03775D02*
X0314D01*
Y03732D01*
X0314132D01*
X0315353Y0373527D01*
X0316447Y0374159D01*
X0317341Y0375053D01*
X0317973Y0376147D01*
X03183Y0377368D01*
Y03775D01*
D02*
G37*
G36*
X0242078Y036789D02*
X0240922D01*
X0239806Y0367591D01*
X0238805Y0367013D01*
X0237987Y0366195D01*
X0237409Y0365194D01*
X023711Y0364078D01*
Y0362922D01*
X0237409Y0361806D01*
X0237987Y0360805D01*
X0238805Y0359987D01*
X0239806Y0359409D01*
X0240922Y035911D01*
X0242078D01*
X0243194Y0359409D01*
X0244195Y0359987D01*
X0245013Y0360805D01*
X0245591Y0361806D01*
X024589Y0362922D01*
Y0364078D01*
X0245591Y0365194D01*
X0245013Y0366195D01*
X0244195Y0367013D01*
X0243194Y0367591D01*
X0242078Y036789D01*
D02*
G37*
G36*
X0232078D02*
X0230922D01*
X0229806Y0367591D01*
X0228805Y0367013D01*
X0227987Y0366195D01*
X0227409Y0365194D01*
X022711Y0364078D01*
Y0362922D01*
X0227409Y0361806D01*
X0227987Y0360805D01*
X0228805Y0359987D01*
X0229806Y0359409D01*
X0230922Y035911D01*
X0232078D01*
X0233194Y0359409D01*
X0234195Y0359987D01*
X0235013Y0360805D01*
X0235591Y0361806D01*
X023589Y0362922D01*
Y0364078D01*
X0235591Y0365194D01*
X0235013Y0366195D01*
X0234195Y0367013D01*
X0233194Y0367591D01*
X0232078Y036789D01*
D02*
G37*
G36*
X0222078D02*
X0220922D01*
X0219806Y0367591D01*
X0218805Y0367013D01*
X0217987Y0366195D01*
X0217409Y0365194D01*
X021711Y0364078D01*
Y0362922D01*
X0217409Y0361806D01*
X0217987Y0360805D01*
X0218805Y0359987D01*
X0219806Y0359409D01*
X0220922Y035911D01*
X0222078D01*
X0223194Y0359409D01*
X0224195Y0359987D01*
X0225013Y0360805D01*
X0225591Y0361806D01*
X022589Y0362922D01*
Y0364078D01*
X0225591Y0365194D01*
X0225013Y0366195D01*
X0224195Y0367013D01*
X0223194Y0367591D01*
X0222078Y036789D01*
D02*
G37*
G36*
X0212078D02*
X0210922D01*
X0209806Y0367591D01*
X0208805Y0367013D01*
X0207987Y0366195D01*
X0207409Y0365194D01*
X020711Y0364078D01*
Y0362922D01*
X0207409Y0361806D01*
X0207987Y0360805D01*
X0208805Y0359987D01*
X0209806Y0359409D01*
X0210922Y035911D01*
X0212078D01*
X0213194Y0359409D01*
X0214195Y0359987D01*
X0215013Y0360805D01*
X0215591Y0361806D01*
X021589Y0362922D01*
Y0364078D01*
X0215591Y0365194D01*
X0215013Y0366195D01*
X0214195Y0367013D01*
X0213194Y0367591D01*
X0212078Y036789D01*
D02*
G37*
G36*
X0202078D02*
X0200922D01*
X0199806Y0367591D01*
X0198805Y0367013D01*
X0197987Y0366195D01*
X0197409Y0365194D01*
X019711Y0364078D01*
Y0362922D01*
X0197409Y0361806D01*
X0197987Y0360805D01*
X0198805Y0359987D01*
X0199806Y0359409D01*
X0200922Y035911D01*
X0202078D01*
X0203194Y0359409D01*
X0204195Y0359987D01*
X0205013Y0360805D01*
X0205591Y0361806D01*
X020589Y0362922D01*
Y0364078D01*
X0205591Y0365194D01*
X0205013Y0366195D01*
X0204195Y0367013D01*
X0203194Y0367591D01*
X0202078Y036789D01*
D02*
G37*
G36*
X0192078D02*
X0190922D01*
X0189806Y0367591D01*
X0188805Y0367013D01*
X0187987Y0366195D01*
X0187409Y0365194D01*
X018711Y0364078D01*
Y0362922D01*
X0187409Y0361806D01*
X0187987Y0360805D01*
X0188805Y0359987D01*
X0189806Y0359409D01*
X0190922Y035911D01*
X0192078D01*
X0193194Y0359409D01*
X0194195Y0359987D01*
X0195013Y0360805D01*
X0195591Y0361806D01*
X019589Y0362922D01*
Y0364078D01*
X0195591Y0365194D01*
X0195013Y0366195D01*
X0194195Y0367013D01*
X0193194Y0367591D01*
X0192078Y036789D01*
D02*
G37*
G36*
X0172078D02*
X0170922D01*
X0169806Y0367591D01*
X0168805Y0367013D01*
X0167987Y0366195D01*
X0167409Y0365194D01*
X016711Y0364078D01*
Y0362922D01*
X0167409Y0361806D01*
X0167987Y0360805D01*
X0168805Y0359987D01*
X0169806Y0359409D01*
X0170922Y035911D01*
X0172078D01*
X0173194Y0359409D01*
X0174195Y0359987D01*
X0175013Y0360805D01*
X0175591Y0361806D01*
X017589Y0362922D01*
Y0364078D01*
X0175591Y0365194D01*
X0175013Y0366195D01*
X0174195Y0367013D01*
X0173194Y0367591D01*
X0172078Y036789D01*
D02*
G37*
G36*
X0162078D02*
X0160922D01*
X0159806Y0367591D01*
X0158805Y0367013D01*
X0157987Y0366195D01*
X0157409Y0365194D01*
X015711Y0364078D01*
Y0362922D01*
X0157409Y0361806D01*
X0157987Y0360805D01*
X0158805Y0359987D01*
X0159806Y0359409D01*
X0160922Y035911D01*
X0162078D01*
X0163194Y0359409D01*
X0164195Y0359987D01*
X0165013Y0360805D01*
X0165591Y0361806D01*
X016589Y0362922D01*
Y0364078D01*
X0165591Y0365194D01*
X0165013Y0366195D01*
X0164195Y0367013D01*
X0163194Y0367591D01*
X0162078Y036789D01*
D02*
G37*
G36*
X0152078D02*
X0150922D01*
X0149806Y0367591D01*
X0148805Y0367013D01*
X0147987Y0366195D01*
X0147409Y0365194D01*
X014711Y0364078D01*
Y0362922D01*
X0147409Y0361806D01*
X0147987Y0360805D01*
X0148805Y0359987D01*
X0149806Y0359409D01*
X0150922Y035911D01*
X0152078D01*
X0153194Y0359409D01*
X0154195Y0359987D01*
X0155013Y0360805D01*
X0155591Y0361806D01*
X015589Y0362922D01*
Y0364078D01*
X0155591Y0365194D01*
X0155013Y0366195D01*
X0154195Y0367013D01*
X0153194Y0367591D01*
X0152078Y036789D01*
D02*
G37*
G36*
X0142078D02*
X0140922D01*
X0139806Y0367591D01*
X0138805Y0367013D01*
X0137987Y0366195D01*
X0137409Y0365194D01*
X013711Y0364078D01*
Y0362922D01*
X0137409Y0361806D01*
X0137987Y0360805D01*
X0138805Y0359987D01*
X0139806Y0359409D01*
X0140922Y035911D01*
X0142078D01*
X0143194Y0359409D01*
X0144195Y0359987D01*
X0145013Y0360805D01*
X0145591Y0361806D01*
X014589Y0362922D01*
Y0364078D01*
X0145591Y0365194D01*
X0145013Y0366195D01*
X0144195Y0367013D01*
X0143194Y0367591D01*
X0142078Y036789D01*
D02*
G37*
G36*
X0132078D02*
X0130922D01*
X0129806Y0367591D01*
X0128805Y0367013D01*
X0127987Y0366195D01*
X0127409Y0365194D01*
X012711Y0364078D01*
Y0362922D01*
X0127409Y0361806D01*
X0127987Y0360805D01*
X0128805Y0359987D01*
X0129806Y0359409D01*
X0130922Y035911D01*
X0132078D01*
X0133194Y0359409D01*
X0134195Y0359987D01*
X0135013Y0360805D01*
X0135591Y0361806D01*
X013589Y0362922D01*
Y0364078D01*
X0135591Y0365194D01*
X0135013Y0366195D01*
X0134195Y0367013D01*
X0133194Y0367591D01*
X0132078Y036789D01*
D02*
G37*
G36*
X0122078D02*
X0120922D01*
X0119806Y0367591D01*
X0118805Y0367013D01*
X0117987Y0366195D01*
X0117409Y0365194D01*
X011711Y0364078D01*
Y0362922D01*
X0117409Y0361806D01*
X0117987Y0360805D01*
X0118805Y0359987D01*
X0119806Y0359409D01*
X0120922Y035911D01*
X0122078D01*
X0123194Y0359409D01*
X0124195Y0359987D01*
X0125013Y0360805D01*
X0125591Y0361806D01*
X012589Y0362922D01*
Y0364078D01*
X0125591Y0365194D01*
X0125013Y0366195D01*
X0124195Y0367013D01*
X0123194Y0367591D01*
X0122078Y036789D01*
D02*
G37*
G36*
X0278744Y0311148D02*
X0277256D01*
X027582Y0310763D01*
X0274532Y0310019D01*
X0273481Y0308968D01*
X0272737Y030768D01*
X0272352Y0306243D01*
Y0304756D01*
X0272737Y030332D01*
X0273481Y0302032D01*
X0274532Y0300981D01*
X027582Y0300237D01*
X0277256Y0299852D01*
X0278744D01*
X028018Y0300237D01*
X0281468Y0300981D01*
X0282519Y0302032D01*
X0283263Y030332D01*
X0283648Y0304756D01*
Y0306243D01*
X0283263Y030768D01*
X0282519Y0308968D01*
X0281468Y0310019D01*
X028018Y0310763D01*
X0278744Y0311148D01*
D02*
G37*
G36*
X03138Y0292D02*
X03095D01*
Y02877D01*
X0309632D01*
X0310853Y0288027D01*
X0311947Y0288659D01*
X0312841Y0289553D01*
X0313473Y0290647D01*
X03138Y0291868D01*
Y0292D01*
D02*
G37*
G36*
X02158Y0300488D02*
X0214664Y0300338D01*
X0213606Y02999D01*
X0212697Y0299203D01*
X0212Y0298294D01*
X0211562Y0297236D01*
X0211412Y02961D01*
X0211562Y0294964D01*
X0212Y0293906D01*
X0212697Y0292997D01*
X0235897Y0269797D01*
X0235897Y0269797D01*
X0236806Y02691D01*
X0237864Y0268662D01*
X0239Y0268512D01*
X0268782D01*
X0272352Y0264942D01*
Y0264756D01*
X0272737Y026332D01*
X0273481Y0262032D01*
X0274532Y0260981D01*
X027582Y0260237D01*
X0277256Y0259852D01*
X0278744D01*
X028018Y0260237D01*
X0281468Y0260981D01*
X0282519Y0262032D01*
X0283263Y026332D01*
X0283648Y0264756D01*
Y0266244D01*
X0283263Y026768D01*
X0282519Y0268968D01*
X0281468Y0270019D01*
X028018Y0270763D01*
X0278744Y0271148D01*
X0278558D01*
X0273703Y0276003D01*
X0272794Y02767D01*
X0271736Y0277138D01*
X02706Y0277288D01*
X02706Y0277288D01*
X0240817D01*
X0218903Y0299203D01*
X0217994Y02999D01*
X0216936Y0300338D01*
X02158Y0300488D01*
D02*
G37*
G36*
X0111526Y0225492D02*
X01115D01*
Y0222D01*
X0114992D01*
Y0222026D01*
X011472Y0223041D01*
X0114195Y0223951D01*
X0113451Y0224694D01*
X0112541Y022522D01*
X0111526Y0225492D01*
D02*
G37*
G36*
X01105D02*
X0110474D01*
X0109459Y022522D01*
X0108549Y0224694D01*
X0107806Y0223951D01*
X010728Y0223041D01*
X0107008Y0222026D01*
Y0222D01*
X01105D01*
Y0225492D01*
D02*
G37*
G36*
X0280913Y0238272D02*
X0279087D01*
X0277296Y0237915D01*
X0275608Y0237216D01*
X027409Y0236202D01*
X0272798Y023491D01*
X0271784Y0233392D01*
X0271085Y0231704D01*
X0270728Y0229913D01*
Y0228087D01*
X0271085Y0226296D01*
X0271784Y0224608D01*
X0272798Y022309D01*
X027409Y0221798D01*
X0275608Y0220784D01*
X0277296Y0220085D01*
X0279087Y0219728D01*
X0280913D01*
X0282704Y0220085D01*
X0284392Y0220784D01*
X028591Y0221798D01*
X0287202Y022309D01*
X0288216Y0224608D01*
X0288915Y0226296D01*
X0289272Y0228087D01*
Y0229913D01*
X0288915Y0231704D01*
X0288216Y0233392D01*
X0287202Y023491D01*
X028591Y0236202D01*
X0284392Y0237216D01*
X0282704Y0237915D01*
X0280913Y0238272D01*
D02*
G37*
G36*
X0114992Y0221D02*
X01115D01*
Y0217508D01*
X0111526D01*
X0112541Y021778D01*
X0113451Y0218305D01*
X0114195Y0219049D01*
X011472Y0219959D01*
X0114992Y0220974D01*
Y0221D01*
D02*
G37*
G36*
X01105D02*
X0107008D01*
Y0220974D01*
X010728Y0219959D01*
X0107806Y0219049D01*
X0108549Y0218305D01*
X0109459Y021778D01*
X0110474Y0217508D01*
X01105D01*
Y0221D01*
D02*
G37*
G36*
X0121578Y022589D02*
X0120422D01*
X0119306Y0225591D01*
X0118305Y0225013D01*
X0117487Y0224195D01*
X0116909Y0223194D01*
X011661Y0222078D01*
Y0220922D01*
X0116909Y0219806D01*
X0117487Y0218805D01*
X0118305Y0217987D01*
X0119306Y0217409D01*
X0120422Y021711D01*
X0121578D01*
X0122694Y0217409D01*
X0123695Y0217987D01*
X0124513Y0218805D01*
X0125091Y0219806D01*
X012539Y0220922D01*
Y0222078D01*
X0125091Y0223194D01*
X0124513Y0224195D01*
X0123695Y0225013D01*
X0122694Y0225591D01*
X0121578Y022589D01*
D02*
G37*
G36*
X0101578D02*
X0100422D01*
X0099306Y0225591D01*
X0098305Y0225013D01*
X0097487Y0224195D01*
X0096909Y0223194D01*
X009661Y0222078D01*
Y0220922D01*
X0096909Y0219806D01*
X0097487Y0218805D01*
X0098305Y0217987D01*
X0099306Y0217409D01*
X0100422Y021711D01*
X0101578D01*
X0102694Y0217409D01*
X0103695Y0217987D01*
X0104513Y0218805D01*
X0105091Y0219806D01*
X010539Y0220922D01*
Y0222078D01*
X0105091Y0223194D01*
X0104513Y0224195D01*
X0103695Y0225013D01*
X0102694Y0225591D01*
X0101578Y022589D01*
D02*
G37*
G36*
X0202492Y0188492D02*
X0199D01*
Y0185D01*
X0202492D01*
Y0188492D01*
D02*
G37*
G36*
X0198D02*
X0194508D01*
Y0185D01*
X0198D01*
Y0188492D01*
D02*
G37*
G36*
X0202492Y0184D02*
X0199D01*
Y0180508D01*
X0202492D01*
Y0184D01*
D02*
G37*
G36*
X0198D02*
X0194508D01*
Y0180508D01*
X0198D01*
Y0184D01*
D02*
G37*
G36*
X0199078Y016889D02*
X0197922D01*
X0196806Y0168591D01*
X0195805Y0168013D01*
X0194987Y0167195D01*
X0194409Y0166194D01*
X019411Y0165078D01*
Y0163922D01*
X0194409Y0162806D01*
X0194987Y0161805D01*
X0195805Y0160987D01*
X0196806Y0160409D01*
X0197922Y016011D01*
X0199078D01*
X0200194Y0160409D01*
X0201195Y0160987D01*
X0202013Y0161805D01*
X0202591Y0162806D01*
X020289Y0163922D01*
Y0165078D01*
X0202591Y0166194D01*
X0202013Y0167195D01*
X0201195Y0168013D01*
X0200194Y0168591D01*
X0199078Y016889D01*
D02*
G37*
G36*
Y015889D02*
X0197922D01*
X0196806Y0158591D01*
X0195805Y0158013D01*
X0194987Y0157195D01*
X0194409Y0156194D01*
X019411Y0155078D01*
Y0153922D01*
X0194409Y0152806D01*
X0194987Y0151805D01*
X0195805Y0150987D01*
X0196806Y0150409D01*
X0197922Y015011D01*
X0199078D01*
X0200194Y0150409D01*
X0201195Y0150987D01*
X0202013Y0151805D01*
X0202591Y0152806D01*
X020289Y0153922D01*
Y0155078D01*
X0202591Y0156194D01*
X0202013Y0157195D01*
X0201195Y0158013D01*
X0200194Y0158591D01*
X0199078Y015889D01*
D02*
G37*
G36*
X0232026Y0114992D02*
X0232D01*
Y01115D01*
X0235492D01*
Y0111526D01*
X023522Y0112541D01*
X0234695Y0113451D01*
X0233951Y0114195D01*
X0233041Y011472D01*
X0232026Y0114992D01*
D02*
G37*
G36*
X0231D02*
X0230974D01*
X0229959Y011472D01*
X0229049Y0114195D01*
X0228306Y0113451D01*
X022778Y0112541D01*
X0227508Y0111526D01*
Y01115D01*
X0231D01*
Y0114992D01*
D02*
G37*
G36*
X0151026D02*
X0151D01*
Y01115D01*
X0154492D01*
Y0111526D01*
X015422Y0112541D01*
X0153694Y0113451D01*
X0152951Y0114195D01*
X0152041Y011472D01*
X0151026Y0114992D01*
D02*
G37*
G36*
X015D02*
X0149974D01*
X0148959Y011472D01*
X0148049Y0114195D01*
X0147306Y0113451D01*
X014678Y0112541D01*
X0146508Y0111526D01*
Y01115D01*
X015D01*
Y0114992D01*
D02*
G37*
G36*
X0076526D02*
X00765D01*
Y01115D01*
X0079992D01*
Y0111526D01*
X007972Y0112541D01*
X0079194Y0113451D01*
X0078451Y0114195D01*
X0077541Y011472D01*
X0076526Y0114992D01*
D02*
G37*
G36*
X00755D02*
X0075474D01*
X0074459Y011472D01*
X0073549Y0114195D01*
X0072806Y0113451D01*
X007228Y0112541D01*
X0072008Y0111526D01*
Y01115D01*
X00755D01*
Y0114992D01*
D02*
G37*
G36*
X0235492Y01105D02*
X0232D01*
Y0107008D01*
X0232026D01*
X0233041Y010728D01*
X0233951Y0107806D01*
X0234695Y0108549D01*
X023522Y0109459D01*
X0235492Y0110474D01*
Y01105D01*
D02*
G37*
G36*
X0231D02*
X0227508D01*
Y0110474D01*
X022778Y0109459D01*
X0228306Y0108549D01*
X0229049Y0107806D01*
X0229959Y010728D01*
X0230974Y0107008D01*
X0231D01*
Y01105D01*
D02*
G37*
G36*
X0154492D02*
X0151D01*
Y0107008D01*
X0151026D01*
X0152041Y010728D01*
X0152951Y0107806D01*
X0153694Y0108549D01*
X015422Y0109459D01*
X0154492Y0110474D01*
Y01105D01*
D02*
G37*
G36*
X015D02*
X0146508D01*
Y0110474D01*
X014678Y0109459D01*
X0147306Y0108549D01*
X0148049Y0107806D01*
X0148959Y010728D01*
X0149974Y0107008D01*
X015D01*
Y01105D01*
D02*
G37*
G36*
X0079992D02*
X00765D01*
Y0107008D01*
X0076526D01*
X0077541Y010728D01*
X0078451Y0107806D01*
X0079194Y0108549D01*
X007972Y0109459D01*
X0079992Y0110474D01*
Y01105D01*
D02*
G37*
G36*
X00755D02*
X0072008D01*
Y0110474D01*
X007228Y0109459D01*
X0072806Y0108549D01*
X0073549Y0107806D01*
X0074459Y010728D01*
X0075474Y0107008D01*
X00755D01*
Y01105D01*
D02*
G37*
G36*
X0222078Y011539D02*
X0220922D01*
X0219806Y0115091D01*
X0218805Y0114513D01*
X0217987Y0113695D01*
X0217409Y0112694D01*
X021711Y0111578D01*
Y0110422D01*
X0217409Y0109306D01*
X0217987Y0108305D01*
X0218805Y0107487D01*
X0219806Y0106909D01*
X0220922Y010661D01*
X0222078D01*
X0223194Y0106909D01*
X0224195Y0107487D01*
X0225013Y0108305D01*
X0225591Y0109306D01*
X022589Y0110422D01*
Y0111578D01*
X0225591Y0112694D01*
X0225013Y0113695D01*
X0224195Y0114513D01*
X0223194Y0115091D01*
X0222078Y011539D01*
D02*
G37*
G36*
X0171078D02*
X0169922D01*
X0168806Y0115091D01*
X0167805Y0114513D01*
X0166987Y0113695D01*
X0166409Y0112694D01*
X016611Y0111578D01*
Y0110422D01*
X0166409Y0109306D01*
X0166987Y0108305D01*
X0167805Y0107487D01*
X0168806Y0106909D01*
X0169922Y010661D01*
X0171078D01*
X0172194Y0106909D01*
X0173195Y0107487D01*
X0174013Y0108305D01*
X0174591Y0109306D01*
X017489Y0110422D01*
Y0111578D01*
X0174591Y0112694D01*
X0174013Y0113695D01*
X0173195Y0114513D01*
X0172194Y0115091D01*
X0171078Y011539D01*
D02*
G37*
G36*
X0161078D02*
X0159922D01*
X0158806Y0115091D01*
X0157805Y0114513D01*
X0156987Y0113695D01*
X0156409Y0112694D01*
X015611Y0111578D01*
Y0110422D01*
X0156409Y0109306D01*
X0156987Y0108305D01*
X0157805Y0107487D01*
X0158806Y0106909D01*
X0159922Y010661D01*
X0161078D01*
X0162194Y0106909D01*
X0163195Y0107487D01*
X0164013Y0108305D01*
X0164591Y0109306D01*
X016489Y0110422D01*
Y0111578D01*
X0164591Y0112694D01*
X0164013Y0113695D01*
X0163195Y0114513D01*
X0162194Y0115091D01*
X0161078Y011539D01*
D02*
G37*
G36*
X0096578D02*
X0095422D01*
X0094306Y0115091D01*
X0093305Y0114513D01*
X0092487Y0113695D01*
X0091909Y0112694D01*
X009161Y0111578D01*
Y0110422D01*
X0091909Y0109306D01*
X0092487Y0108305D01*
X0093305Y0107487D01*
X0094306Y0106909D01*
X0095422Y010661D01*
X0096578D01*
X0097694Y0106909D01*
X0098695Y0107487D01*
X0099513Y0108305D01*
X0100091Y0109306D01*
X010039Y0110422D01*
Y0111578D01*
X0100091Y0112694D01*
X0099513Y0113695D01*
X0098695Y0114513D01*
X0097694Y0115091D01*
X0096578Y011539D01*
D02*
G37*
G36*
X0086578D02*
X0085422D01*
X0084306Y0115091D01*
X0083305Y0114513D01*
X0082487Y0113695D01*
X0081909Y0112694D01*
X008161Y0111578D01*
Y0110422D01*
X0081909Y0109306D01*
X0082487Y0108305D01*
X0083305Y0107487D01*
X0084306Y0106909D01*
X0085422Y010661D01*
X0086578D01*
X0087694Y0106909D01*
X0088695Y0107487D01*
X0089513Y0108305D01*
X0090091Y0109306D01*
X009039Y0110422D01*
Y0111578D01*
X0090091Y0112694D01*
X0089513Y0113695D01*
X0088695Y0114513D01*
X0087694Y0115091D01*
X0086578Y011539D01*
D02*
G37*
G36*
X021589D02*
X020711D01*
Y0112816D01*
X0199782Y0105488D01*
X0146218D01*
X014489Y0106816D01*
Y011539D01*
X013611D01*
Y0112816D01*
X0129382Y0106088D01*
X0073118D01*
X007039Y0108816D01*
Y011539D01*
X006161D01*
Y010661D01*
X0061663D01*
X0061762Y0105864D01*
X00622Y0104806D01*
X0062897Y0103897D01*
X0068197Y0098597D01*
X0068197Y0098597D01*
X0069106Y00979D01*
X0070164Y0097462D01*
X00713Y0097312D01*
X00713Y0097312D01*
X01312D01*
X01312Y0097312D01*
X0132336Y0097462D01*
X0133394Y00979D01*
X0134303Y0098597D01*
X01375Y0101795D01*
X0141297Y0097997D01*
X0141297Y0097997D01*
X0142206Y00973D01*
X0143264Y0096862D01*
X01444Y0096712D01*
X02016D01*
X02016Y0096712D01*
X0202736Y0096862D01*
X0203794Y00973D01*
X0204703Y0097997D01*
X0213316Y010661D01*
X021589D01*
Y011539D01*
D02*
G37*
G36*
X0280913Y0116272D02*
X0279087D01*
X0277296Y0115915D01*
X0275608Y0115216D01*
X027409Y0114202D01*
X0272798Y011291D01*
X0271784Y0111392D01*
X0271085Y0109704D01*
X0270728Y0107913D01*
Y0106087D01*
X0271085Y0104296D01*
X0271784Y0102608D01*
X0272798Y010109D01*
X027409Y0099798D01*
X0275608Y0098784D01*
X0277296Y0098085D01*
X0279087Y0097728D01*
X0280913D01*
X0282704Y0098085D01*
X0284392Y0098784D01*
X028591Y0099798D01*
X0287202Y010109D01*
X0288216Y0102608D01*
X0288915Y0104296D01*
X0289272Y0106087D01*
Y0107913D01*
X0288915Y0109704D01*
X0288216Y0111392D01*
X0287202Y011291D01*
X028591Y0114202D01*
X0284392Y0115216D01*
X0282704Y0115915D01*
X0280913Y0116272D01*
D02*
G37*
%LPD*%
D25*
X01896Y01222D02*
X0225D01*
X016D02*
X01896D01*
X0131Y01845D02*
X01896Y01259D01*
X0111Y02045D02*
X0131Y01845D01*
X03085Y0252D02*
X03153Y02588D01*
X03772D01*
X0388Y0248D01*
X01015Y03635D02*
X01048Y03602D01*
Y03587D02*
Y03602D01*
Y03587D02*
X011Y03535D01*
X02491D01*
X02665Y03361D01*
X03076D01*
X03115Y034D01*
Y0344D01*
X01825Y0401624D02*
X0191476Y04106D01*
X02339D01*
X0242Y04025D01*
X0081506Y03076D02*
X0182361D01*
X0200961Y03262D01*
Y0342713D01*
X0111Y02045D02*
Y02215D01*
X0131Y01845D02*
X01985D01*
X01896Y01222D02*
Y01259D01*
X0225Y01222D02*
X02315Y01157D01*
Y0111D02*
Y01157D01*
X01505Y0111D02*
X01541Y01146D01*
Y01163D01*
X016Y01222D01*
X0413Y03535D02*
X0427D01*
X04125Y0354D02*
X0413Y03535D01*
X0398Y0354D02*
X04125D01*
X041055Y037345D02*
X0427D01*
X04043Y03672D02*
X041055Y037345D01*
X03508Y03672D02*
X04043D01*
X034Y0378D02*
X03508Y03672D01*
X04205Y0251D02*
X04255D01*
X04067Y02372D02*
X04205Y0251D01*
X03508Y02372D02*
X04067D01*
X034Y0248D02*
X03508Y02372D01*
X04128Y0271D02*
X04255D01*
X04118Y0272D02*
X04128Y0271D01*
X0398Y0272D02*
X04118D01*
X040955Y029095D02*
X04255D01*
X04038Y02852D02*
X040955Y029095D01*
X03508Y02852D02*
X04038D01*
X034Y0296D02*
X03508Y02852D01*
X0150961Y0239561D02*
Y0245193D01*
X0147546Y0236146D02*
X0150961Y0239561D01*
X0094054Y0236146D02*
X0147546D01*
X0059494Y0270706D02*
X0094054Y0236146D01*
X0059494Y0270706D02*
Y0375618D01*
X00855Y0401624D01*
X0131Y02215D02*
Y0225D01*
X0134843Y0228843D01*
X0242943D01*
X02574Y02433D01*
X03602Y04118D02*
X0371Y0401D01*
X02975Y04118D02*
X03602D01*
X0265Y03793D02*
X02975Y04118D01*
X01937Y03793D02*
X0265D01*
X01815Y03671D02*
X01937Y03793D01*
X01815Y03635D02*
Y03671D01*
X02158Y02961D02*
X0239Y02729D01*
X02706D01*
X0278Y02655D01*
X0210961Y0318861D02*
Y0342713D01*
X01805Y02884D02*
X0210961Y0318861D01*
X00741Y02884D02*
X01805D01*
X0160961Y0245193D02*
Y0252561D01*
X0150721Y02628D02*
X0160961Y0252561D01*
X0085497Y02628D02*
X0150721D01*
X0066797Y02815D02*
X0085497Y02628D01*
X0066797Y02815D02*
Y03039D01*
X00878Y0324903D01*
Y03633D01*
X00935Y0369D01*
Y03927D01*
X00975Y03967D01*
X0110076D01*
X0115Y0401624D01*
X01985Y01745D02*
X0303D01*
X03085Y018D01*
Y0252D01*
X02225Y0428D02*
X02365D01*
X0262Y04025D01*
X04218Y03335D02*
X0427D01*
X04075Y03192D02*
X04218Y03335D01*
X03508Y03192D02*
X04075D01*
X034Y033D02*
X03508Y03192D01*
X03115Y0344D02*
X0374D01*
X0388Y033D01*
X03722Y03118D02*
X0388Y0296D01*
X03026Y03118D02*
X03722D01*
X02958Y0305D02*
X03026Y03118D01*
X02958Y02957D02*
Y0305D01*
Y02957D02*
X0299Y02925D01*
X03757Y03903D02*
X0388Y0378D01*
X0323Y03903D02*
X03757D01*
X03196Y03937D02*
X0323Y03903D01*
X0304Y03937D02*
X03196D01*
X03003Y039D02*
X0304Y03937D01*
X03003Y03812D02*
Y039D01*
Y03812D02*
X03035Y0378D01*
X0066Y0107D02*
Y0111D01*
Y0107D02*
X00713Y01017D01*
X01312D01*
X01405Y0111D01*
X0076D02*
X00796Y01146D01*
Y01155D01*
X00825Y01184D01*
X01475D01*
X01505Y01154D01*
Y0111D02*
Y01154D01*
X02016Y01011D02*
X02115Y0111D01*
X01444Y01011D02*
X02016D01*
X01405Y0105D02*
X01444Y01011D01*
X01405Y0105D02*
Y0111D01*
X0126824Y04098D02*
X0135Y0401624D01*
X0073676Y04098D02*
X0126824D01*
X00655Y0401624D02*
X0073676Y04098D01*
X0135Y0401624D02*
X01825D01*
X0103001Y0388D02*
X015D01*
X0169501D02*
X02225D01*
X015D02*
X0169501D01*
D26*
X028Y0107D02*
D03*
Y0229D02*
D03*
D27*
X01825Y0401624D02*
D03*
X02025D02*
D03*
X0262Y04025D02*
D03*
X0242D02*
D03*
X0115Y0401624D02*
D03*
X0135D02*
D03*
X00855D02*
D03*
X00655D02*
D03*
D28*
X02225Y0388D02*
D03*
Y0428D02*
D03*
X0169501D02*
D03*
Y0388D02*
D03*
X015Y0428D02*
D03*
Y0388D02*
D03*
X0103001Y0428D02*
D03*
Y0388D02*
D03*
X0331Y0401D02*
D03*
X0371D02*
D03*
X0278Y03055D02*
D03*
Y02655D02*
D03*
D29*
X03135Y0378D02*
D03*
X03085Y03855D02*
D03*
X03035Y0378D02*
D03*
X0309Y02925D02*
D03*
X0304Y03D02*
D03*
X0299Y02925D02*
D03*
X0100961Y0245193D02*
D03*
X0110961D02*
D03*
X0120961D02*
D03*
X0130961D02*
D03*
X0140961D02*
D03*
X0150961D02*
D03*
X0160961D02*
D03*
X0170961D02*
D03*
X0180961D02*
D03*
X0190961D02*
D03*
X0200961D02*
D03*
X0210961D02*
D03*
X0220961D02*
D03*
X0230961D02*
D03*
X0240961D02*
D03*
X0100961Y0342713D02*
D03*
X0110961D02*
D03*
X0120961D02*
D03*
X0130961D02*
D03*
X0140961D02*
D03*
X0150961D02*
D03*
X0160961D02*
D03*
X0170961D02*
D03*
X0180961D02*
D03*
X0190961D02*
D03*
X0200961D02*
D03*
X0210961D02*
D03*
X0220961D02*
D03*
X0230961D02*
D03*
X0240961D02*
D03*
D30*
X02415Y03635D02*
D03*
X02315D02*
D03*
X02215D02*
D03*
X02115D02*
D03*
X02015D02*
D03*
X01915D02*
D03*
X01815D02*
D03*
X01715D02*
D03*
X01615D02*
D03*
X01515D02*
D03*
X01415D02*
D03*
X01315D02*
D03*
X01215D02*
D03*
X01115D02*
D03*
X0101Y02215D02*
D03*
X0111D02*
D03*
X0121D02*
D03*
X0131D02*
D03*
X0141D02*
D03*
X0151D02*
D03*
X0161D02*
D03*
X0171D02*
D03*
X0181D02*
D03*
X0191D02*
D03*
X0201D02*
D03*
X0211D02*
D03*
X0221D02*
D03*
X0231D02*
D03*
X0076Y0111D02*
D03*
X0086D02*
D03*
X0096D02*
D03*
X01985Y01745D02*
D03*
Y01645D02*
D03*
Y01545D02*
D03*
X01505Y0111D02*
D03*
X01605D02*
D03*
X01705D02*
D03*
X02215D02*
D03*
X02315D02*
D03*
D31*
X01015Y03635D02*
D03*
X0241Y02215D02*
D03*
X0066Y0111D02*
D03*
X01405D02*
D03*
X02115D02*
D03*
D32*
X0427Y03535D02*
D03*
Y03335D02*
D03*
Y037345D02*
D03*
X04255Y0271D02*
D03*
Y0251D02*
D03*
Y029095D02*
D03*
D33*
X0388Y033D02*
D03*
X034Y0378D02*
D03*
X0398Y0354D02*
D03*
X034Y033D02*
D03*
X0388Y0378D02*
D03*
Y0248D02*
D03*
X034Y0296D02*
D03*
X0398Y0272D02*
D03*
X034Y0248D02*
D03*
X0388Y0296D02*
D03*
D34*
X03115Y0344D02*
D03*
X03015D02*
D03*
X03085Y0252D02*
D03*
X02985D02*
D03*
D35*
X01985Y01845D02*
D03*
D36*
X0081506Y03076D02*
D03*
X02574Y02433D02*
D03*
X02158Y02961D02*
D03*
X00741Y02884D02*
D03*
M02*
