M48
;Layer_Color=9474304
;FILE_FORMAT=2:4
INCH,LZ
;TYPE=PLATED
T1F00S00C0.0280
T2F00S00C0.0315
T3F00S00C0.0350
T4F00S00C0.0354
T5F00S00C0.0394
T6F00S00C0.0402
T7F00S00C0.0450
T8F00S00C0.0472
T9F00S00C0.1378
%
T01
X02574Y02433
X02158Y02961
X008151Y03076
X00741Y02884
T02
X00655Y040162
X00855
X0115
X0135
X01825
X02025
X0242Y04025
X0262
T03
X0278Y02655
Y03055
X015Y0388
Y0428
X0103
Y0388
X01695
Y0428
X02225
Y0388
X0331Y0401
X0371
T04
X0299Y02925
X0309
X0304Y03
X03035Y0378
X03085Y03855
X03135Y0378
T05
X016096Y024519
X017096
X018096
X019096
X020096
X021096
X022096
X023096
X024096
X02985Y0252
X03085
X015096Y024519
X014096
X013096
X012096
X011096
X010096
Y034271
X011096
X012096
X013096
X014096
X015096
X016096
X017096
X018096
X019096
X020096
X021096
X022096
X023096
X024096
X03015Y0344
X03115
T06
X0066Y0111
X0076
X0086
X0096
X01405
X01505
X01605
X01705
X02115
X02215
X02315
X01985Y01545
Y01645
Y01745
Y01845
X0201Y02215
X0191
X0181
X0171
X0161
X0211
X0221
X0231
X0241
X0151
X0141
X0131
X0121
X0111
X0101
X01015Y03635
X01115
X01215
X01315
X01415
X01515
X01615
X01715
X01815
X01915
X02015
X02115
X02215
X02315
X02415
T07
X034Y0248
X0388
X0398Y0272
X0388Y0296
X034
Y033
X0388
X0398Y0354
X0388Y0378
X034
T08
X04255Y0251
Y0271
Y029095
X0427Y03335
Y03535
Y037345
T09
X028Y0107
Y0229
M30
